<?xml version="1.0" encoding="UTF-8"?>
<!DOCTYPE svg PUBLIC "-//W3C//DTD SVG 1.1//EN" "http://www.w3.org/Graphics/SVG/1.1/DTD/svg11.dtd">
<svg xmlns="http://www.w3.org/2000/svg" xml:space="preserve" width="12cm" height="15.178cm" style="shape-rendering:geometricPrecision; text-rendering:geometricPrecision; image-rendering:optimizeQuality; fill-rule:evenodd; clip-rule:evenodd" viewBox="0 0 12 15.178" xmlns:xlink="http://www.w3.org/1999/xlink">
 <defs>
	<style type="text/css">
		<![CDATA[
			.fil0 {fill: #151515}
			.fil1 {fill: #16FEF5}
			.fil2 {fill: #151515; fill-rule: nonzero}
		]]>
	</style>
 </defs>
<g>
	<polygon class="fil0" points="-0.00013,0.00041 12.0001,0.00041 12.0001,15.1786 -0.00013,15.1786 "/>
	<polygon class="fil1" points="11.1227,0.00041 11.1227,1.34471 9.99626,2.81281 9.99626,7.83538 11.1227,9.30348 11.1227,10.6412 10.518,11.4294 10.518,13.358 11.1227,14.1461 11.1227,15.1786 10.518,15.1786 10.518,13.996 10.8204,14.3901 10.8204,14.2488 10.2156,13.4607 10.2156,11.3267 10.8204,10.5386 10.8204,9.40612 9.69386,7.93803 7.41121,10.9129 7.41121,15.1786 6.80648,15.1786 6.80648,10.7076 9.08912,7.73274 9.08912,2.71016 7.10885,0.12939 7.10885,4.65785 6.80648,5.0519 6.80648,0.00041 7.41121,0.00041 7.41121,0.02674 9.39149,2.60752 10.518,1.13943 10.518,0.00041 "/>
	<polygon class="fil1" points="2.89334,0.00041 2.89334,2.48456 5.8104,6.28616 5.8104,15.1786 4.29853,15.1786 4.29853,8.99618 4.6009,8.60212 4.6009,8.31038 2.89334,10.5357 2.89334,15.1786 1.38147,15.1786 1.38147,10.8437 -0.00013,9.04313 -0.00013,7.05634 2.59097,10.4331 4.29853,8.20773 4.29853,6.79937 1.38147,2.99777 1.38147,0.00041 "/>
	<polygon class="fil1" points="5.8104,0.00041 5.8104,3.45893 4.29853,1.48865 4.29853,0.00041 "/>
	<polygon class="fil1" points="12.0001,7.05634 10.518,5.1248 10.518,7.1116 12.0001,9.04313 "/>
	<polygon class="fil2" points="11.1641,0.00041 11.1641,1.34471 11.1641,1.35858 11.1555,1.36976 10.0376,2.82667 10.0376,7.82152 11.1555,9.27843 11.1641,9.28958 11.1641,9.30348 11.1641,10.6412 11.1641,10.6551 11.1555,10.6663 10.5594,11.4432 10.5594,13.3441 11.1555,14.1211 11.1641,14.1322 11.1641,14.1461 11.1641,15.1786 11.0814,15.1786 11.0814,14.16 10.4852,13.3831 10.4767,13.3719 10.4767,13.358 10.4767,11.4294 10.4767,11.4155 10.4852,11.4043 11.0814,10.6273 11.0814,9.31734 9.96347,7.86043 9.9549,7.84925 9.9549,7.83538 9.9549,2.81281 9.9549,2.79891 9.96347,2.78776 11.0814,1.33085 11.0814,0.00041 "/>
	<polygon class="fil2" points="10.8617,0.00041 10.8617,1.24207 10.8617,1.25593 10.8532,1.26712 9.73522,2.72403 9.73522,7.92416 10.8532,9.38107 10.8617,9.39222 10.8617,9.40612 10.8617,10.5386 10.8617,10.5524 10.8532,10.5636 10.257,11.3406 10.257,13.4468 10.8532,14.2237 10.8617,14.2349 10.8617,14.2488 10.8617,15.1786 10.779,15.1786 10.779,14.2626 10.1829,13.4857 10.1743,13.4745 10.1743,13.4607 10.1743,11.3267 10.1743,11.3128 10.1829,11.3017 10.779,10.5247 10.779,9.41998 9.66107,7.96307 9.6525,7.95189 9.6525,7.93803 9.6525,2.71016 9.6525,2.69627 9.66107,2.68511 10.779,1.22821 10.779,0.00041 "/>
	<polygon class="fil2" points="10.779,15.1786 10.779,14.4039 10.5594,14.1177 10.5594,15.1786 10.4767,15.1786 10.4767,13.996 10.4767,13.8743 10.5508,13.971 10.8532,14.365 10.8617,14.3762 10.8617,14.3901 10.8617,15.1786 "/>
	<polygon class="fil2" points="9.72665,7.96307 7.45257,10.9267 7.45257,15.1786 7.36985,15.1786 7.36985,10.9129 7.36985,10.899 7.37842,10.8878 9.66107,7.91298 "/>
	<polygon class="fil2" points="10.5594,0.00041 10.5594,1.13943 10.5594,1.15329 10.5508,1.16448 9.43285,2.62139 9.43285,7.83538 9.43285,7.84925 9.42428,7.86043 7.15021,10.8241 7.15021,15.1786 7.06748,15.1786 7.06748,10.8102 7.06748,10.7963 7.07605,10.7852 9.35013,7.82152 9.35013,2.60752 9.35013,2.59362 9.3587,2.58247 10.4767,1.12556 10.4767,0.00041 "/>
	<polygon class="fil2" points="7.45257,0.00041 7.45257,0.01288 9.42428,2.58247 9.3587,2.63257 7.37842,0.05179 7.36985,0.04061 7.36985,0.02674 7.36985,0.00041 "/>
	<polygon class="fil2" points="7.15021,0.00041 7.15021,0.11552 9.12192,2.68511 9.13049,2.69627 9.13049,2.71016 9.13049,7.73274 9.13049,7.74661 9.12192,7.75779 6.84784,10.7214 6.84784,15.1786 6.76512,15.1786 6.76512,10.7076 6.76512,10.6937 6.77369,10.6825 9.04776,7.71888 9.04776,2.72403 7.07605,0.15443 7.06748,0.14325 7.06748,0.12939 7.06748,0.00041 "/>
	<polygon class="fil2" points="7.15021,0.00041 7.15021,4.65785 7.15021,4.67171 7.14164,4.6829 6.83927,5.07695 6.76512,5.17357 6.76512,5.0519 6.76512,0.00041 6.84784,0.00041 6.84784,4.9302 7.06748,4.64398 7.06748,0.00041 "/>
	<polygon class="fil2" points="5.85176,0.00041 5.85176,3.45893 5.85176,3.5806 5.77761,3.48398 4.26574,1.5137 4.25717,1.50251 4.25717,1.48865 4.25717,0.00041 4.33989,0.00041 4.33989,1.47479 5.76904,3.33727 5.76904,0.00041 "/>
	<polygon class="fil2" points="5.54939,0.00041 5.54939,3.06488 5.46667,3.06488 5.46667,0.00041 "/>
	<polygon class="fil2" points="5.24703,0.00041 5.24703,2.67082 5.1643,2.67082 5.1643,0.00041 "/>
	<polygon class="fil2" points="4.94466,0.00041 4.94466,2.27676 4.86194,2.27676 4.86194,0.00041 "/>
	<polygon class="fil2" points="4.64226,0.00041 4.64226,1.88271 4.55954,1.88271 4.55954,0.00041 "/>
	<polygon class="fil2" points="2.9347,0.00041 2.9347,2.4707 5.84319,6.26111 5.85176,6.27226 5.85176,6.28616 5.85176,15.1786 5.76904,15.1786 5.76904,6.30002 2.86055,2.50961 2.85198,2.49843 2.85198,2.48456 2.85198,0.00041 "/>
	<polygon class="fil2" points="2.63233,0.00041 2.63233,2.57334 5.54082,6.36375 5.54939,6.3749 5.54939,6.3888 5.54939,15.1786 5.46667,15.1786 5.46667,6.40266 2.55818,2.61225 2.54961,2.60107 2.54961,2.5872 2.54961,0.00041 "/>
	<polygon class="fil2" points="2.32993,0.00041 2.32993,2.67598 5.23846,6.46639 5.24703,6.47754 5.24703,6.49144 5.24703,15.1786 5.1643,15.1786 5.1643,6.50531 2.25578,2.71489 2.24721,2.70371 2.24721,2.68985 2.24721,0.00041 "/>
	<polygon class="fil2" points="2.02756,0.00041 2.02756,2.77862 4.93609,6.56904 4.94466,6.58019 4.94466,6.59408 4.94466,15.1786 4.86194,15.1786 4.86194,6.60795 1.95341,2.81754 1.94484,2.80635 1.94484,2.79249 1.94484,0.00041 "/>
	<polygon class="fil2" points="1.7252,0.00041 1.7252,2.88127 4.63369,6.67168 4.64226,6.68283 4.64226,6.69673 4.64226,15.1786 4.55954,15.1786 4.55954,6.71059 1.65104,2.92018 1.64247,2.90899 1.64247,2.89513 1.64247,0.00041 "/>
	<polygon class="fil2" points="1.7252,0.00041 1.7252,2.88127 4.63369,6.67168 4.64226,6.68283 4.64226,6.69673 4.64226,8.31038 4.64226,8.32424 4.63369,8.33543 2.9347,10.5496 2.9347,15.1786 2.85198,15.1786 2.85198,10.5357 2.85198,10.5219 2.86055,10.5107 4.55954,8.29651 4.55954,6.71059 1.65104,2.92018 1.64247,2.90899 1.64247,2.89513 1.64247,0.00041 "/>
	<polygon class="fil2" points="1.42283,0.00041 1.42283,2.98391 4.33132,6.77432 4.33989,6.78547 4.33989,6.79937 4.33989,8.20773 4.33989,8.2216 4.33132,8.23278 2.63233,10.447 2.63233,15.1786 2.54961,15.1786 2.54961,10.4331 2.54961,10.4192 2.55818,10.4081 4.25717,8.19387 4.25717,6.81323 1.34868,3.02282 1.34011,3.01164 1.34011,2.99777 1.34011,0.00041 "/>
	<polygon class="fil2" points="4.55954,15.1786 4.55954,8.72382 4.33989,9.01004 4.33989,15.1786 4.25717,15.1786 4.25717,8.99618 4.25717,8.98228 4.26574,8.97113 4.56811,8.57707 4.64226,8.48042 4.64226,8.60212 4.64226,15.1786 "/>
	<polygon class="fil2" points="-0.00013,6.98877 2.62373,10.4081 2.6323,10.4192 2.6323,10.4331 2.6323,15.1786 2.54958,15.1786 2.54958,10.447 -0.00013,7.12433 "/>
	<polygon class="fil2" points="-0.00013,7.49414 2.32507,10.5241 2.33351,10.5351 2.33347,10.5492 2.3298,15.1786 2.24741,15.1786 2.25108,10.5632 -0.00013,7.6297 "/>
	<polygon class="fil2" points="-0.00013,7.9822 2.01899,10.6133 2.02756,10.6245 2.02756,10.6384 2.02756,15.1786 1.94484,15.1786 1.94484,10.6523 -0.00013,8.11773 "/>
	<polygon class="fil2" points="-0.00013,8.4789 1.71663,10.716 1.7252,10.7271 1.7252,10.741 1.7252,15.1786 1.64247,15.1786 1.64247,10.7549 -0.00013,8.61443 "/>
	<polygon class="fil2" points="-0.00013,8.97553 1.41426,10.8186 1.42283,10.8297 1.42283,10.8436 1.42283,15.1786 1.34011,15.1786 1.34011,10.8575 -0.00013,9.1111 "/>
	<polygon class="fil2" points="12.0001,7.12377 10.5594,5.24647 10.5594,7.0977 12.0001,8.97504 12.0001,9.1106 10.4852,7.13664 10.4767,7.12546 10.4767,7.1116 10.4767,5.1248 10.4767,5.00313 10.5508,5.09975 12.0001,6.98821 "/>
	<polygon class="fil2" points="12.0001,7.6205 10.4852,5.64655 10.5508,5.59645 12.0001,7.48494 "/>
	<polygon class="fil2" points="12.0001,8.1172 10.4852,6.14325 10.5508,6.09315 12.0001,7.98164 "/>
	<polygon class="fil2" points="12.0001,8.6139 10.4852,6.63994 10.5508,6.58985 12.0001,8.47834 "/>
</g>
</svg>
