<?xml version="1.0" encoding="UTF-8" standalone="no"?>
<!-- Created with Inkscape (http://www.inkscape.org/) -->

<svg
   xmlns:dc="http://purl.org/dc/elements/1.1/"
   xmlns:cc="http://creativecommons.org/ns#"
   xmlns:rdf="http://www.w3.org/1999/02/22-rdf-syntax-ns#"
   xmlns:svg="http://www.w3.org/2000/svg"
   xmlns="http://www.w3.org/2000/svg"
   version="1.1"
   width="744.09448"
   height="1052.3622"
   id="svg2">
  <defs
     id="defs4" />
  <metadata
     id="metadata7">
    <rdf:RDF>
      <cc:Work
         rdf:about="">
        <dc:format>image/svg+xml</dc:format>
        <dc:type
           rdf:resource="http://purl.org/dc/dcmitype/StillImage" />
        <dc:title></dc:title>
      </cc:Work>
    </rdf:RDF>
  </metadata>
  <g
     id="layer1">
    <path
       d="m 337.14286,298.07647 c 27.9998,20.99985 0.52042,1.45511 17.14285,11.42857 2.94451,1.76671 5.31379,4.6284 8.57143,5.71429 2.71053,0.9035 5.7996,-0.69296 8.57143,0 1.30666,0.32666 1.57939,2.43122 2.85714,2.85714 1.80702,0.60234 3.84652,-0.37356 5.71429,0 2.95321,0.59064 5.61822,2.2665 8.57143,2.85714 1.86777,0.37356 3.94576,-0.70741 5.71428,0 3.18826,1.2753 5.38318,4.43898 8.57143,5.71429 1.76853,0.70741 3.8664,-0.46198 5.71429,0 2.066,0.5165 3.69398,2.1837 5.71428,2.85714 0.90351,0.30117 1.95364,-0.30117 2.85715,0 2.0203,0.67343 3.64828,2.34064 5.71428,2.85714 3.69578,0.92395 7.81454,-1.20467 11.42857,0 1.27776,0.42592 1.55049,2.53048 2.85715,2.85715 15.02022,3.75505 3.01082,-5.56061 14.28571,5.71428 6.70051,6.70051 -2.0203,-0.67343 8.57143,2.85714 1.27775,0.42592 1.90476,1.90477 2.85714,2.85715 3.70857,3.70856 5.33672,3.98984 2.85715,11.42857 -2.02031,6.06091 -5.71429,11.42857 -8.57143,17.14286 -2.85715,5.71428 -5.02758,11.82708 -8.57143,17.14285 -8.31324,12.46986 -15.9403,15.0391 -20,28.57143 -11.59919,38.66395 9.38148,-5.15962 -14.28572,34.28572 -1.31818,2.19697 -8.13406,17.80366 -11.42857,20 -5.67163,3.78108 -16.67229,2.85714 -22.85714,2.85714 -5.71429,0 -11.42857,0 -17.14286,0 -0.95238,0 -1.95363,0.30117 -2.85714,0 -2.02031,-0.67344 -3.80952,-1.90476 -5.71429,-2.85714 -3.80952,-1.90477 -7.77635,-3.52296 -11.42857,-5.71429 -1.15493,-0.69296 -1.57939,-2.43123 -2.85714,-2.85714 -1.80702,-0.60234 -3.80952,0 -5.71429,0 -0.95238,0 -2.0053,0.42591 -2.85714,0 -1.20468,-0.60234 -1.65246,-2.25481 -2.85714,-2.85715 -0.85184,-0.42591 -1.95364,0.30117 -2.85714,0 -4.86554,-1.62184 -9.59903,-3.63131 -14.28572,-5.71428 -3.89208,-1.72982 -7.44058,-4.21879 -11.42857,-5.71429 -3.67675,-1.37878 -7.70331,-1.61539 -11.42857,-2.85714 -2.02031,-0.67344 -3.69398,-2.18371 -5.71429,-2.85714 -0.90351,-0.30117 -2.0053,0.42591 -2.85714,0 -1.20468,-0.60234 -1.90476,-1.90477 -2.85714,-2.85715 -0.95238,-0.95238 -2.25481,-1.65246 -2.85715,-2.85714 -0.38657,-0.77315 0,-15.91214 0,-17.14286 0,-10.47619 0,-20.95238 0,-31.42857 0,-19.04762 0,-38.09524 0,-57.14285 0,-4.76191 0,-9.52381 0,-14.28572 0,-4.7619 -1.033,-9.6372 0,-14.28571 0.92395,-4.15776 4.5442,-7.33327 5.71429,-11.42857 0.78492,-2.74722 0,-5.71429 0,-8.57143 1.90476,-3.80953 4.13247,-7.47403 5.71429,-11.42857 1.06111,-2.6528 -0.90351,-5.86091 0,-8.57143 2.07792,-6.23377 3.63636,-1.38528 5.71428,0 1.77193,1.18128 3.69398,2.1837 5.71429,2.85714 0.90351,0.30117 1.90476,0 2.85714,0 2.85714,2.85714 5.20944,6.3301 8.57143,8.57143 2.02262,8.7116 7.91636,1.10104 11.42857,2.85714 1.20468,0.60234 1.65247,2.25481 2.85714,2.85714 0.85184,0.42592 2.18371,-0.67343 2.85715,0 4.31208,4.31209 5.97416,11.55851 11.42857,14.28572 5.11101,2.5555 11.42857,0 17.14285,0 0.95239,0 -1.90476,0 -2.85714,0 -4.7619,0 -9.52381,0 -14.28571,0 z"
       id="path2985"
       style="fill:none;stroke:#000000;stroke-width:1px;stroke-linecap:butt;stroke-linejoin:miter;stroke-opacity:1" />
  </g>
</svg>
