<?xml version="1.0" encoding="UTF-8" standalone="no"?>
<!-- Created with Inkscape (http://www.inkscape.org/) -->

<svg
   xmlns:dc="http://purl.org/dc/elements/1.1/"
   xmlns:cc="http://creativecommons.org/ns#"
   xmlns:rdf="http://www.w3.org/1999/02/22-rdf-syntax-ns#"
   xmlns:svg="http://www.w3.org/2000/svg"
   xmlns="http://www.w3.org/2000/svg"
   version="1.1"
   width="3868"
   height="2579"
   id="svg3054">
  <metadata
     id="metadata3060">
    <rdf:RDF>
      <cc:Work
         rdf:about="">
        <dc:format>image/svg+xml</dc:format>
        <dc:type
           rdf:resource="http://purl.org/dc/dcmitype/StillImage" />
        <dc:title></dc:title>
      </cc:Work>
    </rdf:RDF>
  </metadata>
  <defs
     id="defs3058" />
  <path
     d="m 651.19919,1263.1823 -33.44968,-0.7602 2.28066,-5.3215 10.64308,0.7602 1.52044,-3.8011 0,-12.9237 -6.84198,-3.0409 -11.4033,-6.0818 -5.32155,3.0409 -11.4033,-2.2807 -3.8011,7.6022 -0.76022,7.6022 -0.76022,4.5614 3.04088,2.2806 -2.28066,5.3216 -7.6022,2.2806 -6.08176,2.2807 -11.4033,0.7602 -6.08176,-2.2807 -0.76022,-3.8011 -3.04088,-4.5613 7.6022,0.7602 6.84198,1.5205 6.08176,-0.7602 1.52044,-5.3216 0,-9.8828 -2.28066,-4.5614 -4.56132,0 -3.04088,3.0409 -8.36242,-16.7248 -3.8011,9.8828 -3.04088,6.0818 0,7.6022 -3.80111,5.3215 -1.52044,2.2807 -2.28066,2.2807 -3.04088,0 -5.32154,-2.2807 -2.28066,-2.2807 -3.8011,-0.7602 -3.04088,-2.2806 4.56132,-4.5614 6.84198,-1.5204 4.56132,0.7602 3.04088,0 3.8011,-6.842 -1.52044,-3.0408 -0.76022,-3.0409 -0.76022,-1.5205 -3.04088,-0.7602 -2.28066,-1.5204 0.76022,-15.9646 1.52044,-1.5205 2.28066,-6.842 1.52044,-3.0408 -2.28066,-30.4088 0,-26.6078 0.76022,-3.0408 8.36243,-8.3625 0.76022,-3.8011 -2.28066,-8.3624 -0.76022,-0.7602 0.76022,-6.842 0.76022,-3.0409 0.76022,-5.3215 6.08176,0 3.04088,2.2807 0.76022,7.6022 0.76022,3.0408 0,4.5614 0,6.0817 2.28066,0.7602 8.36242,-1.5204 0,0 4.56132,3.8011 1.52044,5.3215 3.04088,3.8011 2.28066,4.5614 0,2.2806 0,2.2807 0,9.8829 4.56132,-3.0409 1.52044,-5.3216 0,-6.842 0,-7.6022 1.52044,-7.6022 0,-5.3215 0,-3.8011 -3.8011,-3.8011 -0.76022,-3.0409 -4.56132,-9.1226 1.52044,-6.0818 4.56132,-1.5204 6.84198,-3.8011 7.6022,0 1.52044,9.1226 0,5.3216 0,6.8419 0,1.5205 3.04089,3.0409 2.28066,-0.7603 -1.52044,-5.3215 0,-3.0409 0.76022,-6.0817 3.8011,-2.2807 5.32154,-2.2807 6.84198,1.5205 4.56132,3.8011 0.76022,3.8011 0.76022,6.842 0.76022,6.8419 1.52044,4.5614 2.28066,4.5613 6.08176,9.8828 3.04088,0 7.6022,2.2807 7.6022,9.1226 0,5.3216 2.28066,7.6022 -0.76022,14.4442 0,6.0817 -4.56132,2.2807 -7.6022,0.7602 -5.32154,2.2807 -2.28066,3.8011 -1.52044,3.0409 0,6.8419 -1.52044,9.1227 0,3.0409 3.04088,2.2806 0.76022,3.0409 0.76022,4.5613 c 0,0 10.64308,-2.2807 0,0 0,28.1282 2.28066,38.7712 2.28066,38.7712 z"
     id="path3066"
     style="fill:yellow;stroke:#000000;stroke-width:1px;stroke-linecap:butt;stroke-linejoin:miter;stroke-opacity:1" />
</svg>
