<?xml version="1.0" encoding="UTF-8" standalone="no"?>
<!-- Created with Inkscape (http://www.inkscape.org/) -->

<svg
   xmlns:dc="http://purl.org/dc/elements/1.1/"
   xmlns:cc="http://creativecommons.org/ns#"
   xmlns:rdf="http://www.w3.org/1999/02/22-rdf-syntax-ns#"
   xmlns:svg="http://www.w3.org/2000/svg"
   xmlns="http://www.w3.org/2000/svg"
   xmlns:sodipodi="http://sodipodi.sourceforge.net/DTD/sodipodi-0.dtd"
   xmlns:inkscape="http://www.inkscape.org/namespaces/inkscape"
   id="svg3036"
   version="1.1"
   inkscape:version="0.48.4 r9939"
   width="3868"
   height="2579"
   sodipodi:docname="opt.svg">
  <metadata
     id="metadata3042">
    <rdf:RDF>
      <cc:Work
         rdf:about="">
        <dc:format>image/svg+xml</dc:format>
        <dc:type
           rdf:resource="http://purl.org/dc/dcmitype/StillImage" />
        <dc:title />
      </cc:Work>
    </rdf:RDF>
  </metadata>
  <defs
     id="defs3040" />
  <sodipodi:namedview
     pagecolor="#ffffff"
     bordercolor="#666666"
     borderopacity="1"
     objecttolerance="10"
     gridtolerance="10"
     guidetolerance="10"
     inkscape:pageopacity="0"
     inkscape:pageshadow="2"
     inkscape:window-width="1260"
     inkscape:window-height="744"
     id="namedview3038"
     showgrid="false"
     inkscape:zoom="0.23253356"
     inkscape:cx="1786.3302"
     inkscape:cy="997.14941"
     inkscape:window-x="97"
     inkscape:window-y="-3"
     inkscape:window-maximized="1"
     inkscape:current-layer="svg3036" />
  <path
     style="fill:none;stroke:#000000;stroke-width:1px;stroke-linecap:butt;stroke-linejoin:miter;stroke-opacity:1"
     d="m 591.73634,1087.4481 c 0,0 4.57128,-0.023 9.37116,6.4985 4.32943,5.8824 2.12717,10.6065 2.12717,10.6065 0,0 4.18121,-8.3625 7.22209,-9.5028 3.04088,-1.1403 15.96463,-4.5613 18.24529,0.7602 2.28066,5.3216 1.90055,7.2221 0,12.1636 -1.90055,4.9414 6.46187,11.0231 7.6022,13.3038 1.14033,2.2807 3.91243,12.2096 3.53232,12.9698 -0.38011,0.7602 9.01131,-3.8472 13.57263,2.9948 4.56132,6.842 8.74253,14.8243 8.74253,14.8243 0,0 2.66077,26.6077 -2.66077,28.5083 -5.32154,1.9005 -14.44418,1.5204 -14.44418,1.5204 0,0 -4.94143,18.2453 -4.56132,23.9469 0.38011,5.7017 1.94271,5.0759 1.94271,8.877 0,3.8011 0.22662,12.2096 2.88736,15.2505 1.46609,2.6476 5.04339,3.6679 2.54548,4.8492 -1.90055,3.0409 -3.73193,5.5211 -3.73193,5.5211 0,0 -1.36299,0.4724 0.91767,5.7939 2.28066,5.3216 5.90126,7.5791 3.6206,10.2399 -2.28066,2.6608 -9.83435,2.3693 -11.67209,-2.9335 -1.34873,-3.8917 -25.03634,11.9886 -25.01809,6.7577 0.0173,-4.956 0.0731,-6.4619 5.39467,-7.6022 5.32154,-1.1403 7.14896,1.1403 8.2893,-0.7602 1.14033,-1.9006 4.56132,-4.1812 1.90055,-9.8829 -2.66077,-5.7016 -3.421,-10.6431 -11.0232,-12.1635 -7.6022,-1.5205 -6.46187,1.9005 -14.06407,2.2806 -7.79208,4e-4 -7.51603,-1.0357 -11.5186,2.7913 -7.56502,7.2335 -4.06514,17.7611 -5.28729,22.4114 -7.27245,5.2195 -25.1972,1.8227 -26.03126,2.7219 -0.76022,-2.2806 -11.51859,-5.8782 -9.23793,-8.5389 2.28066,-2.6608 6.26622,-1.8736 11.58776,0.027 5.32154,1.9005 10.07852,-0.4072 10.45863,-1.9276 0.38011,-1.5204 7.22214,-12.9238 1.14033,-17.4851 -2.27597,-1.707 -8.90299,-9.8832 -13.11006,-8.515 -7.03494,2.2878 -11.88962,15.5732 -11.88962,15.5732 0,0 -2.66009,12.3657 -4.94075,11.6054 -2.28066,-0.7602 -21.19713,1.7711 -18.24132,-7.2603 2.7082,-8.2749 11.14135,-2.7889 14.19846,-4.807 3.8011,-1.9005 5.49809,-11.8295 5.49809,-11.8295 2.44176,-2.6692 -2.25066,-1.8384 -6.50403,-1.9888 -2.06044,-0.073 0.16071,-14.4993 0.0191,-18.2453 3.42099,-3.0409 6.29911,-2.6964 5.32154,-7.9823 -1.035,-5.5964 -0.71685,-29.6052 -0.66519,-29.5536 0,0 -1.99558,-31.2641 0.28508,-34.3049 2.28066,-3.0409 9.12264,-8.9326 9.12264,-8.9326 1.018,-3.4375 -2.23289,-9.0695 -1.33038,-14.4442 0,0 -4.88168,-0.8476 -3.22594,-5.2019 0.721,-1.8961 0.44688,-6.0678 4.17621,-6.7716 8.0286,-1.515 7.27018,-1.2951 8.83756,-1.1403 1.55965,0.154 9.21767,11.9735 8.07734,18.4354 -1.14033,6.4619 9.21767,17.7701 9.21767,17.7701 0.0918,2.7204 -1.06042,9.4879 0.15355,11.5872 5.68612,9.8332 2.24983,11.082 1.36689,16.4459 -0.56832,-0.3967 8.71155,-3.2082 4.87287,-15.7046 -2.16262,-7.0401 5.10608,-13.6648 5.29508,-14.4191 1.90055,-1.5205 4.46629,-8.3625 2.94585,-12.5437 -1.52044,-4.1812 -10.45303,-1.4254 -10.45303,-1.4254 0,0 -2.37236,2.4321 -4.98918,-0.6748 -3.506,-4.1625 -2.68663,-22.8391 -2.68663,-22.8391 0.1914,0.07 -1.43547,-4.9001 0.54875,-8.5103 12.52208,-1.0398 16.2531,0.8905 16.15468,0.6814"
     id="path3046"
     inkscape:connector-curvature="0"
     sodipodi:nodetypes="cscsssssscccsscccssssscsccsccccsssccsccscsccccsssscscscscsccc" />
  <path
     style="fill:none;stroke:#000000;stroke-width:1px;stroke-linecap:butt;stroke-linejoin:miter;stroke-opacity:1"
     d="m 3369.2956,1318.555 c 0,0 -23.9469,8.7426 -24.7071,2.6608 -0.7603,-6.0818 0.3801,-18.2453 0.3801,-22.4265 0,-4.1812 -2.2807,-9.8829 0,-11.7834 2.2806,-1.9006 5.7016,2.2807 3.421,-5.3215 -2.2807,-7.6022 -9.7254,-7.7518 -12.3862,-6.9915 -2.6608,0.7602 -0.4915,-1.1674 -6.1932,1.4934 -5.7016,2.6607 -27.2835,2.3919 -27.2835,2.3919 0,0 2.1693,-22.964 -2.7721,-25.2446 -4.9414,-2.2807 -2.2998,-7.7597 -2.2998,-7.7597 0,0 3.421,-0.7602 -1.1403,-2.2807 -4.5613,-1.5204 -49.7944,-3.421 -49.7944,-3.421 0,0 1.5204,-17.8651 -0.7603,-23.9469 -2.2806,-6.0818 -1.9005,-14.4442 -1.9005,-14.4442 0,0 3.0409,-6.0817 5.3215,-4.9414 2.2807,1.1403 16.3448,3.0409 16.3448,-0.3801 0,-3.421 -14.0641,-6.4619 -16.3448,-9.1227 -2.2806,-2.6607 -21.2861,-14.064 -22.4265,-26.9878 -1.1403,-12.9237 -3.421,-46.7535 8.7426,-58.5369 12.1635,-11.7834 25.8474,-20.9061 29.6485,-21.6663 3.8011,-0.7602 19.3857,-6.0818 34.9702,-4.9414 15.5845,1.1403 30.7889,3.421 35.3502,7.9823 4.5613,4.5613 7.222,5.5116 9.1226,8.5525 1.9005,3.0409 0.7603,-51.1248 2.2807,-56.4464 1.5205,-5.3215 0.3801,-123.15564 2.2807,-125.4363 1.9005,-2.28066 -14.6849,-27.62344 -8.2342,-30.31123 6.4506,-2.68778 11.8262,-15.05159 8.0633,-16.1267 -3.7629,-1.07511 -6.4507,-9.67602 -3.7629,-10.21358 2.6878,-0.53756 12.9014,-6.98824 9.676,-8.06335 -3.2253,-1.07511 -16.1267,1.07511 -18.2769,-5.91313 -2.1502,-6.98823 -3.7629,-35.47874 0.5376,-37.09142 4.3004,-1.61267 6.1054,-8.97438 6.1054,-8.97438 0,0 -10.6431,1.52044 -11.4033,0.38011 -0.7603,-1.14033 -3.6111,-7.79226 3.421,-15.39446 7.032,-7.6022 8.5524,-7.41214 8.5524,-7.41214 0,0 -3.9911,-10.83314 -0.9502,-13.68397 3.0408,-2.85082 4.1812,-5.13148 7.6022,-7.22209 3.421,-2.0906 2.8508,-8.55247 4.5613,-11.4033 1.7105,-2.85083 9.8828,-8.36242 9.8828,-8.36242 0,0 -7.6022,-3.04088 -12.9237,-2.47072 -5.3215,0.57017 -16.1547,-1.90055 -15.9646,-4.18121 0.19,-2.28066 -0.3801,-5.13148 3.8011,-8.17236 4.1812,-3.04088 10.0729,-22.04639 10.6431,-22.23644 0.5701,-0.19006 7.2221,-4.18121 7.9823,-7.03204 0.7602,-2.85082 -0.1901,-4.94143 1.3304,-6.27182 1.5204,-1.33038 5.7016,0.19006 6.8419,-1.90055 1.1404,-2.0906 1.5205,-5.8917 4.7514,-6.65192 3.2309,-0.76022 4.1812,-1.33039 4.9414,0.76022 0.7603,2.0906 -1.5204,9.50275 1.3304,7.79225 2.8509,-1.71049 6.842,-0.19005 7.9823,-3.42099 1.1404,-3.23093 -2.2578,-76.80068 4.1929,-100.99074 6.4507,-24.19005 10.2136,-54.83079 8.6009,-59.13125 -1.6126,-4.30045 -12.3638,-8.60091 -16.6642,-2.15022 -4.3005,6.45068 -17.7394,27.95295 -20.4272,19.35204 -2.6878,-8.60091 -12.9013,-8.60091 -11.8262,-18.81449 1.0751,-10.21358 6.2852,-24.70932 8.3758,-26.98998 2.0906,-2.28066 15.5845,-9.12264 15.5845,-11.78341 0,-2.66078 3.9912,-21.47622 0.5702,-25.84749 -3.421,-4.37126 -8.1724,-14.82429 -6.0818,-17.86517 2.0906,-3.04088 25.8475,-15.01435 27.558,-14.44418 1.7105,0.57016 6.0818,-109.4717 3.611,-111.1822 -2.4707,-1.71049 -27.5579,58.91706 -28.8883,68.98998 -1.3304,10.07292 -5.5116,31.35908 -5.8917,42.76238 -0.3801,11.4033 -0.5702,30.59886 -10.263,32.87952 -9.6928,2.28066 -11.2132,4.56132 -14.0641,-0.95027 -2.8508,-5.5116 -5.5116,-8.55248 -7.6022,-14.25413 -2.0906,-5.70165 -15.9646,7.41214 -22.0464,9.88286 -6.0817,2.47072 -11.9734,7.03204 -12.5436,10.26297 -0.5701,3.23094 -3.8011,8.93259 -3.9911,13.1138 -0.1901,4.18121 -7.0321,11.78341 -8.3625,16.53479 -1.3303,4.75137 0.1901,14.06407 -1.9005,15.96462 -2.0906,1.90055 -5.1315,1.33038 -4.5613,4.37127 0.5701,3.04088 1.3304,9.50275 0.3801,12.16352 -0.9503,2.66077 -5.3216,5.32154 -6.0818,7.41214 -0.7602,2.09061 -2.2806,17.67512 -2.6608,21.09611 -0.3801,3.42099 -7.9823,11.4033 -9.3127,11.97347 -1.3303,0.57016 -4.7513,0 -10.0729,-1.14033 -5.3215,-1.14033 -8.1723,0.38011 -7.9823,-3.61105 0.1901,-3.99115 3.421,-7.6022 -0.5701,-3.42099 -3.9912,4.18121 -12.5437,11.02319 -13.494,5.5116 -0.9502,-5.5116 0,-10.64308 2.8509,-13.30385 2.8508,-2.66077 5.8917,-6.46187 7.4121,-11.21325 1.5205,-4.75138 3.231,-9.12264 4.9415,-15.39446 1.7104,-6.27181 5.7016,-12.92374 1.7104,-9.31269 -3.9911,3.61104 -7.222,11.97346 -7.4121,5.51159 -0.1901,-6.46187 -0.5702,-3.99115 2.8508,-13.87402 3.421,-9.88286 5.8917,-9.88286 3.421,-10.45302 -2.4707,-0.57017 -2.2806,-4.94143 0.3801,-9.3127 2.6608,-4.37126 4.5613,-6.46187 4.3713,-9.50275 -0.1901,-3.04088 -3.9912,1.71049 -5.8917,1.90055 -1.9006,0.19005 -3.421,-12.35358 -1.9006,-15.01435 1.5205,-2.66077 3.0409,-6.65192 4.1812,-10.45302 1.1404,-3.80111 1.5205,-15.01435 2.0907,-17.29501 0.5701,-2.28066 1.7104,-4.18121 3.4209,-6.84198 1.7105,-2.66077 -7.222,8.93258 -7.222,4.56132 0,-4.37127 0.9502,-5.32154 2.6607,-9.12264 1.7105,-3.80111 1.5205,-3.23094 4.1812,-7.2221 2.6608,-3.99115 18.8155,-18.62539 19.0055,-20.14583 0.1901,-1.52044 7.9823,-21.85633 8.7426,-25.08726 0.7602,-3.23094 3.8011,-7.41215 4.3712,-10.64309 0.5702,-3.23093 3.0409,-6.08176 0.3801,-5.32154 -2.6607,0.76022 -8.1723,3.61105 -7.032,-1.33038 1.1403,-4.94143 1.3304,-6.84198 3.2309,-10.07292 1.9006,-3.23093 -6.0817,-6.27181 -3.9911,-8.55247 2.0906,-2.28066 1.9005,-2.47072 3.9911,-5.5116 2.0906,-3.04088 -4.3712,-3.42099 -3.2309,-7.03204 1.1403,-3.61104 1.3304,-2.85082 3.6111,-7.6022 2.2806,-4.75137 3.4209,-5.13148 5.8917,-7.22209 2.4707,-2.0906 -3.231,1.52044 -4.9415,0.38011 -1.7105,-1.14033 1.7105,-3.99115 0.5702,-7.79226 -1.1403,-3.8011 -0.9503,-4.37126 -2.0906,-9.12264 -1.1403,-4.75137 -0.7602,-7.79225 -4.5613,-5.13148 -3.8011,2.66077 -8.5525,5.13148 -11.7834,10.26297 -3.231,5.13148 -3.0409,8.36242 -7.7923,15.2044 -4.7514,6.84198 -1.3304,3.8011 -8.3624,11.4033 -7.0321,7.6022 -9.5028,16.15468 -11.7834,13.1138 -2.2807,-3.04088 -6.842,-0.95027 -6.652,1.14033 0.1901,2.09061 1.1404,8.17237 -1.5204,11.78341 -2.6608,3.61105 -5.5116,7.03204 -7.032,10.45303 -1.5205,3.42099 -4.3713,6.84198 -4.7514,10.07292 -0.3801,3.23093 0,6.84198 -0.7602,7.98231 -0.7603,1.14033 -5.8917,11.97346 -7.7923,14.63424 -1.9005,2.66077 -3.421,6.08176 -6.6519,9.6928 -3.231,3.61105 -5.8917,11.21325 -9.5028,11.21325 -3.611,0 -9.5027,1.14033 -11.0232,-4.37127 -1.5204,-5.51159 -0.3801,-9.6928 -1.5204,-11.97346 -1.1403,-2.28066 -0.7602,1.90055 -2.4707,-1.90055 -1.7105,-3.80111 -1.7105,-3.99116 -2.2807,-7.03204 -0.5701,-3.04088 -10.8331,0.19005 -9.1226,-4.56132 1.7105,-4.75138 2.6608,-7.03204 3.611,-9.88286 0.9503,-2.85083 -2.8508,5.51159 -2.8508,-1.90055 0,-7.41215 0.5702,-9.3127 1.1403,-13.30386 0.5702,-3.99115 1.1404,-3.23093 1.5205,-8.93258 0.3801,-5.70165 -0.9503,-4.56132 -0.1901,-11.21325 0.7602,-6.65193 1.5205,-5.32154 0.9503,-10.83314 -0.5702,-5.51159 1.7105,-6.46187 -2.4707,-4.37126 -4.1812,2.0906 -5.8917,6.08176 -5.8917,-1.7105 0,-7.79225 -0.5702,-6.08176 4.1812,-11.78341 4.7514,-5.70165 5.8917,-7.79226 8.3624,-10.83314 2.4707,-3.04088 -5.1315,3.8011 -4.3713,-0.57016 0.7603,-4.37127 1.7105,-2.09061 1.5205,-7.22209 -0.1901,-5.13149 -7.9823,3.99115 -5.7017,-2.28066 2.2807,-6.27182 0.7602,-3.42099 3.8011,-9.69281 3.0409,-6.27182 4.1812,-12.73369 6.652,-14.25413 2.4707,-1.52044 4.3712,0.57017 5.3215,-3.8011 0.9503,-4.37126 0.1901,0 1.7105,-7.6022 1.5204,-7.6022 -0.1901,-8.55247 3.2309,-10.83314 3.421,-2.28066 0.9503,-1.52044 5.7017,-3.61104 4.7514,-2.09061 2.6607,-0.95028 7.2221,-2.47072 4.5613,-1.52044 12.9237,-5.32154 8.7425,-4.94143 -4.1812,0.38011 -7.4121,5.70165 -8.9326,0.76022 -1.5204,-4.94143 -1.9005,-3.61104 0,-7.79225 1.9006,-4.18121 1.7105,-4.75138 5.5116,-7.22209 3.8011,-2.47072 6.2718,-7.60221 5.1315,-10.26298 -1.1403,-2.66077 -0.3801,3.04088 -5.7017,0.19006 -5.3215,-2.85083 -7.9823,1.14033 -5.3215,-3.99116 2.6608,-5.13148 3.8011,-6.27181 5.1315,-7.03203 1.3304,-0.76022 -0.3801,-10.07292 1.9005,-12.92375 2.2807,-2.85082 3.0409,-1.52044 -2.0906,-3.61104 -5.1315,-2.09061 -7.9823,0.19005 -3.9911,-4.94143 3.9911,-5.13149 1.9005,-4.56132 6.842,-7.6022 4.9414,-3.04088 11.4033,-6.46187 11.9734,-11.4033 0.5702,-4.94144 1.1404,-4.94144 1.5205,-9.69281 0.3801,-4.75138 9.3127,-13.30385 13.1138,-15.2044 3.8011,-1.90055 0.3801,-1.52044 5.3215,-4.37127 4.9414,-2.85083 7.4122,-4.18121 9.3127,-5.32154 1.9006,-1.14033 1.7105,-5.13149 -3.611,-2.66077 -5.3216,2.47071 -9.6928,5.70165 -13.1138,9.12264 -3.421,3.42099 -6.4619,3.61105 -8.9326,7.79226 -2.4707,4.18121 -1.3304,11.78341 -6.652,9.31269 -5.3215,-2.47071 -8.3624,0.76022 -5.8917,-7.79225 2.4708,-8.55248 4.7514,-2.09061 2.4708,-10.64308 -2.2807,-8.55248 -2.8509,-6.65193 -4.9415,-11.21325 -2.0906,-4.56132 -0.9502,-6.08176 -0.19,-7.6022 0.7602,-1.520443 -0.9503,1.71049 -4.9415,0.38011 -3.9911,-1.330388 -3.611,-0.950278 -3.611,-5.891709 0,-4.941431 0.9503,-7.792256 2.4707,-9.312697 1.5204,-1.52044 0,-2.090605 4.3713,-5.131485 4.3712,-3.040881 7.9823,-7.792257 6.0817,-12.543632 -1.9005,-4.751376 -0.5701,-7.412147 -3.2309,-8.742532 -2.6608,-1.330385 -4.1812,-2.850825 -2.2807,-8.172366 1.9006,-5.321541 -1.3303,-2.280661 4.1813,-8.362422 5.5115,-6.081761 -4.9415,0.570165 6.4618,-8.172366 11.4033,-8.742532 13.874,-14.254128 15.9646,-16.154678 2.0907,-1.90055 3.0409,-6.841981 6.652,-8.1723662 3.611,-1.3303853 2.6607,-3.6110456 6.6519,-4.9414309 3.9912,-1.3303852 0.1901,-1.3303852 6.2718,-2.8508254 6.0818,-1.5204403 5.5116,-3.4209906 9.1227,-2.85082552 3.611,0.57016509 3.9911,0.76022013 4.5613,0.38011006 0.5701,-0.38011006 603.8048,-1.14033024 604.375,0.5701651 0.5701,1.71049526 -0.3801,29.07841986 -1.9006,31.54913486 -1.5204,2.470716 -2.0906,0 -5.8917,5.131486 -3.8011,5.131486 -2.8508,2.470716 -5.3215,8.742532 -2.4707,6.271816 -6.4619,7.222091 -7.7923,7.792256 -1.3304,0.570165 -1.5204,4.751376 -1.1403,8.362422 0.3801,3.611045 -0.1901,33.63974 -0.3801,34.78007 -0.1901,1.140331 1.7105,45.803259 3.421,47.323699 1.7105,1.52044 3.9911,18.24529 3.9911,21.09611 0,2.85083 1.7105,59.29717 0.9503,61.57783 -0.7602,2.28066 -1.3304,32.68947 -1.9005,34.78007 -0.5702,2.09061 0.7602,27.36793 -1.5205,31.73919 -2.2806,4.37127 -2.2806,5.89171 -0.19,7.03204 2.0906,1.14033 -0.3802,1.7105 3.9911,0 4.3713,-1.71049 4.9414,-1.52044 7.2221,-3.8011 2.2807,-2.28066 2.4707,-4.37127 4.1812,-4.56132 1.7105,-0.19006 3.8507,1070.55251 2.2381,1071.09001 -1.6127,0.5376 0.8063,1.8815 -5.3756,2.1502 -6.1819,0.2688 -10.7511,-0.8063 -17.4706,-0.8063 -6.7195,0 -6.7195,0.2688 -16.933,-1.3439 -10.2136,-1.6126 -26.8779,-3.4941 -36.8227,-3.2253 -9.9448,0.2688 -17.4706,1.3439 -25.2651,0 -7.7946,-1.3439 -10.2136,-1.0751 -18.5458,-3.2254 -8.3321,-2.1502 -11.2887,-0.8063 -19.352,-2.6877 -8.0634,-1.8815 -15.3204,-1.6127 -22.0398,-1.8815 -6.7195,-0.2688 0,-4.0317 -6.9883,-4.0317 -6.9882,0 -9.1384,2.1503 -15.5891,0.5376 -6.4507,-1.6127 -26.6091,-2.419 -25.8027,-5.3756 0.8063,-2.9565 -0.5376,-0.2688 2.6877,-6.4507 3.2254,-6.1819 -4.5692,-4.5692 5.1068,-7.257 9.6761,-2.6878 7.257,0.8064 16.3955,-0.8063 9.1385,-1.6127 8.0634,-1.3439 15.5892,-3.4941 7.5258,-2.1503 6.7194,0.8063 14.2452,-1.8815 7.5258,-2.6878 -0.5375,-2.9565 16.1267,-3.7629 16.6643,-0.8063 31.1783,2.6878 23.115,-0.8063 -8.0634,-3.4941 -1.8815,-5.1068 -12.0951,-3.7629 -10.2135,1.3439 -7.257,-2.9566 -18.8145,0 -11.5574,2.9566 -17.4706,1.3439 -25.5339,4.3004 -8.0634,2.9566 -8.0634,4.5693 -14.2453,4.3005 -6.1819,-0.2688 -40.8543,-21.2335 -40.3167,-23.9213 0.5375,-2.6878 1.0751,-0.5375 -1.8815,-6.1819 -2.9565,-5.6443 -4.5692,-6.1819 -7.5258,-7.7946 -2.9565,-1.6126 -1.3439,-1.6126 -12.095,-2.419 -10.7511,-0.8063 -35.21,-0.5375 -37.8977,-0.5375 -2.6878,0 -98.3268,-2.1339 -99.9395,-0.5213 -1.6126,1.6127 -6.1819,7.2571 -5.3755,15.5892 0.8063,8.3321 -2.734,3.4778 -3.0027,7.2407 -0.086,3.7446 0.3126,3.8251 -0.9475,9.676 -1.2005,5.5739 3.7331,12.1142 0.5077,11.8454 -3.2253,-0.2688 -5.2805,1.056 -13.0751,-2.1694 -7.7517,-3.2682 -9.7304,3.6319 -7.7946,-6.1819 1.8561,-9.4097 3.4833,-6.0988 3.6353,-14.4977 0.2687,-8.3321 1.2325,-1.6993 1.2325,-14.0631 4.3544,-11.1169 -12.3443,-10.6647 -12.3828,-10.1163 0,9.4073 0.8715,8.5739 0.3339,18.5187 -0.5375,9.9448 2.6878,14.2453 -1.3438,16.3955 -4.0317,2.1503 3.4941,3.7629 -9.9448,3.4942 -13.439,-0.2688 -18.5458,4.3004 -20.696,-2.1503 -2.1502,-6.4507 -5.3756,-8.8697 -0.2688,-11.8262 5.1068,-2.9566 10.2136,-0.2688 10.4824,-5.1068 0.2688,-4.838 0.2688,-0.2688 0,-7.7946 -0.2688,-7.5258 0.2688,-6.4507 -0.5376,-9.1385 -0.8063,-2.6877 -52.6805,-8.6009 -52.4118,-4.5692 0.2688,4.0317 -1.3438,13.9765 -1.3438,19.6208 0,5.6444 0.9646,21.8968 0.9646,21.8968 z"
     id="path3088"
     inkscape:connector-curvature="0"
     sodipodi:nodetypes="ccscccsccccccccssssssscccssssssccsccsscscscsccscccscsssssssscssscsscccscssccscsccccssssccccccsssccccsscsssccsssscssccscscccscsscscscssssssscccscssssssccssssscscscssscssssccsssssscscsscsssscccsssscsssccssssccscsssssssccsscssssssscscsscccsscsccccssscssccsc" />
  <path
     style="fill:none;stroke:#000000;stroke-width:1px;stroke-linecap:butt;stroke-linejoin:miter;stroke-opacity:1"
     d="m 857.5283,882.18868 0,66.89937 76.78224,2.28066 -1.52044,-63.09827 z"
     id="path3090"
     inkscape:connector-curvature="0" />
  <path
     style="fill:none;stroke:#000000;stroke-width:1px;stroke-linecap:butt;stroke-linejoin:miter;stroke-opacity:1"
     d="m 1747.366,1983.7476 -25.4674,-4.9414 0,-9.5027 28.1281,-6.0818 1.1404,-8.7425 -23.947,-4.1812 -1.9005,-9.1227 -25.0873,-4.9414 -36.8707,4.1812 -22.5148,-5.1871 c -0.5314,-4.3712 2.6313,-5.3322 0.4225,-8.7845 -2.5464,0.2032 -17.0553,-4.4111 -23.5049,-4.296 -0.7524,0.014 0.2895,-9.5871 0.2758,-7.2881 l 28.2165,-5.2332 0,-7.9823 29.0784,-3.8011 5.5116,-8.7426 29.8387,-3.9911 0.357,-8.1859 25.3004,-3.4075 26.9878,2.6608 26.9878,-3.421 28.8884,4.1812 0.3801,9.1227 -28.8884,3.4209 0,7.2221 25.4674,5.3216 1.3304,9.3127 25.6574,2.8508 -0.7602,8.7425 -29.4585,5.8918 -0.3801,7.4121 -30.2188,4.5613 0.3801,9.8829 29.4585,3.9912 0.1901,9.3126 25.8475,4.5613 0,11.4033 -28.5083,4.5614 -31.9292,-5.3216 z"
     id="path3092"
     inkscape:connector-curvature="0"
     sodipodi:nodetypes="cccccccccccsccccccccccccccccccccccccccccc" />
  <path
     style="fill:none;stroke:#000000;stroke-width:1px;stroke-linecap:butt;stroke-linejoin:miter;stroke-opacity:1"
     d="m 194.42629,1273.132 c 2.227,0 30.83221,105.2904 27.17788,107.571 -3.04088,2.2807 -33.09362,8.903 -55.49607,4.5614 -13.66965,-2.6492 15.81437,-118.8602 14.44418,-111.7524 4.11786,-2.0755 9.75616,-1.8492 13.87401,-0.38 z"
     id="path3094"
     inkscape:connector-curvature="0"
     sodipodi:nodetypes="ccscc" />
  <path
     style="fill:none;stroke:#000000;stroke-width:1px;stroke-linecap:butt;stroke-linejoin:miter;stroke-opacity:1"
     d="m 1133.9412,1577.1133 c 0,0 170.3113,-16.0727 181.0624,-50.4763 10.7512,-34.4036 3.1602,-41.9611 -11.8914,-54.8624 -15.0516,-12.9014 -20.4924,-15.1597 -46.2951,-15.1597 -25.8027,0 -44.3386,1.4869 -59.3902,-2.8136 -15.0516,-4.3004 -24.4239,-2.3142 -30.8746,-45.3188 -6.4506,-43.0045 -3.2794,-72.3138 -3.2794,-106.7175 0,-34.4036 -8.6009,-141.915 -2.1502,-180.6191 6.4507,-38.7041 -7.6511,-144.35262 0.6186,-174.54848 8.3481,-30.48234 -7.9183,-108.40484 -0.6186,-154.43625 8.4262,-53.1347 6.2011,-70.70782 14.802,-68.55759 8.6009,2.15023 65.0322,61.98591 84.9004,61.27692 12.9823,-0.46328 50.1745,-20.90605 57.0165,-20.90605 6.8419,0 20.1458,30.78891 28.5082,27.74803 8.3625,-3.04088 13.684,6.84198 20.526,-21.28616 6.842,-28.12815 -10.6431,-27.36793 -27.368,-41.05189 -16.7248,-13.68396 17.8652,-69.18003 23.1868,-69.94025 5.3215,-0.76022 4.9414,-4.56132 22.4265,-3.04088 17.4851,1.52044 18.2453,6.84198 29.6486,2.28066 C 1426.173,654.12264 1431.4945,645 1437.5763,645 c 6.0817,0 61.5778,-0.76022 107.191,6.08176 45.6132,6.84198 56.2563,9.88286 66.8994,25.08726 10.6431,15.2044 19.0055,45.61321 20.5259,66.89937 1.5205,21.28617 8.3624,105.6706 6.0818,115.55346 -2.2807,9.88286 5.3215,137.59984 5.3215,144.44185 0,6.842 10.6431,85.9049 6.0818,107.191 -4.5613,21.2862 10.6431,187.7744 8.3624,202.9788 -2.2807,15.2044 1.5204,56.2562 -12.1636,58.5369 -13.6839,2.2807 -48.654,15.9647 -54.7357,19.7658 -6.0818,3.8011 -20.46,11.1415 -27.7482,13.3038 -4.5613,1.3532 -16.7247,5.449 -15.9645,21.2861 0.6571,13.6894 8.7425,33.8299 17.1049,41.4321 8.3624,7.6022 19.7657,14.4442 41.0519,13.6839 21.2862,-0.7602 40.2917,0 51.695,-3.0408 11.4033,-3.0409 159.7779,-9.2966 172.9501,-13.3039 25.9062,-7.8814 31.2687,-16.8014 44.0928,-22.0463 12.9363,-5.2908 24.3089,-9.7717 18.2452,-16.7249 -16.9074,-19.3875 -11.4033,-9.5028 -28.1282,-18.6254 -16.7248,-9.1227 -23.9468,-12.1636 -47.5137,-15.9647 -23.5668,-3.8011 -21.6663,-14.4441 -43.7127,-20.5259 -22.0464,-6.0818 -17.643,0.6963 -32.3093,-13.6839 -15.0123,-14.7196 -11.5678,10.3401 -18.2453,-27.368 -7.5571,-42.6752 -2.2807,-39.5314 -4.5613,-69.9402 -2.2807,-30.4088 -2.2807,-15.2044 -2.2807,-41.0519 0,-25.8475 -0.7602,-20.526 -0.7602,-38.011 0,-17.4851 -4.5613,-109.8518 -4.5613,-109.8518 0,-10.6431 3.9941,-34.0109 -11.0233,-70.7005 -8.8899,-21.71955 -8.7424,-33.82979 -8.7424,-60.43749 0,-26.60771 -0.7603,-42.57233 -3.041,-64.61872 -2.2806,-22.04638 -1.9005,-36.49056 -1.9005,-53.2154 0,-16.72485 -1.9006,-43.33255 -0.3801,-61.57783 1.5204,-18.24529 3.421,-9.88287 6.4618,-22.04639 3.0409,-12.16352 4.1813,-15.58451 4.1813,-32.30935 0,-16.72484 13.3039,-19.00551 13.3039,-24.32705 0,-5.32154 9.8829,-15.58451 25.0873,-9.50275 15.2044,6.08176 16.8415,9.65314 14.064,3.04088 -6.0332,-14.36332 15.0915,-28.79882 5.7017,-29.26847 -17.9242,-0.89651 -2.3179,0.8609 -9.1227,-11.0232 -6.7258,-11.74605 -6.0817,-10.64308 -15.2044,-15.2044 -9.1226,-4.56132 -4.9414,-21.28616 -7.9823,-31.16902 -3.0409,-9.88287 -8.3624,-6.08176 -16.7249,-5.32154 -8.3624,0.76022 -17.485,8.36242 -17.485,-0.76022 0,-9.12265 3.0409,-25.84749 4.5613,-33.44969 1.5204,-7.6022 0,-21.28616 0,-21.28616 -9.7424,-17.5309 10.2416,-46.72958 6.842,-43.33255 -4.5614,-1.52044 -8.7426,-13.30385 -8.7426,-13.30385 0,0 5.7017,3.42099 14.0641,-0.38011 8.3624,-3.8011 10.6431,-3.8011 12.1636,-12.16353 1.5204,-8.36242 11.4032,-9.12264 9.8828,-18.24528 -1.5204,-9.12264 -4.5613,-19.76572 -4.5613,-27.36792 0,-7.6022 12.9237,-6.08176 0,-14.44419 -12.9238,-8.36242 -17.8652,3.42099 -24.7072,-12.54363 -6.842,-15.96462 -1.9005,-11.02319 -1.9005,-27.74803 0,-16.72484 -3.421,-13.68396 2.6608,-26.60771 6.0817,-12.92374 -1.5205,-11.02319 9.8828,-27.74803 11.4033,-16.72484 14.0641,-20.52594 17.1049,-24.32704 3.0409,-3.8011 11.9759,-13.68869 16.7249,-21.66628 18.8215,2.28785 23.9143,-25.39801 25.0872,-25.84748 5.0197,-1.92351 13.684,15.58451 20.526,16.34473 6.842,0.76022 12.1635,11.02319 15.9646,8.74253 3.8011,-2.28066 0.7603,-15.96462 1.5205,-22.8066 0.7602,-6.84198 2.2806,-9.50275 6.0817,-14.06408 3.8011,-4.56132 2.2807,-7.98231 11.4033,-11.02319 9.1227,-3.04088 11.0232,-6.84198 19.3856,-9.88286 8.3625,-3.04088 8.7426,-9.50275 21.6663,-14.06407 12.9238,-4.56132 26.6077,-5.70165 34.2099,-8.74253 7.6022,-3.04088 28.8884,-13.68396 44.853,-15.96462 15.9646,-2.28066 14.4442,16.34473 27.3679,20.14583 12.9237,3.8011 23.1868,4.56132 23.1868,4.56132 6.7666,-1.55693 -15.9616,-18.2703 -19.0056,-21.66627 -9.8828,-9.88287 28.8885,-13.30386 44.0929,-7.98232 15.2044,5.32155 16.7248,23.56683 16.7248,23.56683 0,0 4.5613,6.84198 14.4441,9.12264 9.8829,2.28066 28.5083,-6.84198 26.9878,-12.16352 -1.5204,-5.32154 9.1227,-9.50275 18.2454,-7.22209 9.1226,2.28066 12.5436,6.46187 16.3447,8.74253 3.8011,2.28066 7.6022,4.18121 17.485,4.94143 9.8829,0.76022 18.2453,-2.28066 19.7658,3.8011 1.5204,6.08176 1.9005,8.36242 10.2629,6.08176 8.3625,-2.28066 9.6021,1.04449 9.1227,-12.92374 -0.4435,-12.92374 -2.5512,-9.12264 5.7017,-13.68396 10.7491,-5.94102 8.3624,-3.8011 12.1635,-5.32154 3.8011,-1.52045 7.9822,-3.42099 9.5027,-15.58452 1.5204,-12.16352 1.9006,-10.64308 -1.1403,-20.52594 -3.0409,-9.88286 -7.6023,-6.46187 -15.9647,-11.02319 -8.3624,-4.56132 -8.7425,-4.18121 -17.8651,-14.824291 -9.1227,-10.643087 -9.1226,-6.841986 -12.9237,-6.841986 -3.8011,0 -15.9647,-4.941431 -23.5669,-7.982311 -7.6022,-3.040881 -14.064,-5.321541 -17.1049,-3.040881 -3.0409,2.280661 -12.5437,15.204403 -12.5437,15.204403 0,0 3.0409,-16.724843 -4.5613,-19.765723 -7.6022,-3.040881 -13.7129,-2.318806 -16.7249,-10e-7 -2.8168,2.168648 -13.1075,17.386932 -20.1458,20.906054 0,0 -5.0558,10.820656 -11.0232,18.245286 -7.2482,9.01816 -29.5001,16.55833 -30.4088,12.92374 5.1705,-15.27993 21.7965,-24.45202 34.2099,-36.110457 0,0 7.6023,-7.982311 13.684,-11.023192 6.0818,-3.04088 10.263,-16.724842 13.3039,-18.245282 3.0408,-1.52044 6.0817,-7.222092 6.0817,-12.543633 0,-5.321541 -5.7016,-6.841981 -17.8652,-6.841981 -12.1635,0 -5.7017,20.145834 -14.8243,20.145834 -9.1226,0 -3.4209,-14.824293 -14.8242,-15.584513 -11.4033,-0.76022 -15.2044,-3.040881 -25.0873,-3.040881 -9.8829,0 -8.7425,6.841982 -11.7834,6.841982 -3.0409,0 -9.1226,-31.929246 -23.5668,-17.485064 -7.7722,7.772192 3.3112,23.127139 -1.6509,31.799773 -4.2597,7.444971 -20.8625,25.010343 -21.916,27.117288 -2.2806,4.561321 -17.8651,4.18121 -26.9878,5.70165 -9.1226,1.520436 -19.3856,7.222096 -17.1049,12.543636 2.2807,5.32154 13.684,30.02869 9.8829,35.35023 -3.8011,5.32154 -16.3448,8.36242 -40.6719,15.2044 -24.327,6.84199 -48.274,15.58452 -48.274,15.58452 0,0 -4.9414,-16.34474 -0.3801,-27.74804 4.5614,-11.4033 4.1961,-23.49595 7.9823,-24.32704 3.7892,-0.83174 10.1023,4.35695 23.1868,0 14.8697,-4.9514 18.2453,-11.4033 23.5668,-20.52594 5.3216,-9.122646 -1.5204,-18.245288 8.3624,-25.087269 9.8829,-6.841981 12.1636,-7.602201 17.4851,-15.964622 5.3216,-8.362421 7.9823,-14.824293 7.9823,-14.824293 0,0 1.5205,-4.94143 0,-15.584512 -1.5204,-10.643082 0.3801,-15.964623 6.4619,-14.444183 6.0817,1.52044 6.842,4.561321 21.2861,5.321541 14.4442,0.76022 5.3216,4.561321 28.8884,-0.76022 23.5668,-5.321541 22.8066,-6.081761 34.2099,-7.602201 11.4033,-1.520441 25.8475,-11.4033023 25.8475,-11.4033023 L 2030.548,0.33332789 1670.2036,1.093548 c 0,0 1.5205,5.3215409 4.5613,11.403302 3.0409,6.081761 2.2807,11.403302 -2.2806,14.444182 -4.5613,3.040881 -9.1227,12.923743 -6.0818,18.245283 3.0409,5.321541 9.8829,18.245283 4.5613,22.806604 -5.3215,4.561321 -4.5613,1.52044 -15.2044,9.122642 -10.643,7.602201 -20.5259,18.245283 -28.1281,20.525943 -7.6022,2.280661 -11.4033,5.321546 -17.4851,4.561316 -6.0817,-0.76022 -12.1635,-2.280655 -16.7248,-2.280655 -4.5613,0 -12.1635,3.040885 -12.1635,-3.801101 0,-6.841981 2.2806,-7.602201 3.8011,-12.163522 1.5204,-4.561321 3.0408,-15.964623 -3.0409,-19.005503 -6.0818,-3.040881 -11.4033,6.081761 -7.6022,-3.801101 3.8011,-9.882862 5.3215,-9.122641 9.8828,-11.403302 4.5614,-2.28066 20.526,-12.923742 20.526,-12.923742 0,0 -0.7602,-8.362421 3.0409,-14.444182 3.8011,-6.081761 5.3215,-10.643082 5.3215,-13.6839627 0,-3.0408805 -2.2807,-10.6430818 -2.2807,-10.6430818 l -148.2429,3.8011006 c 0,0 2.2807,0.7602202 4.5613,9.8828619 2.2807,9.122641 -6.8419,6.841981 -11.4033,9.122641 -4.5613,2.280661 -0.7602,15.204403 -9.8828,13.683963 -9.1227,-1.520441 -14.4442,-11.403302 -6.842,-15.204403 7.6022,-3.801101 11.4033,-0.76022 12.1635,-8.362421 0.7602,-7.6022016 0.7602,-12.9237425 0.7602,-12.9237425 l -63.0982,2.28066039 c 0,0 1.5204,2.28066041 1.5204,6.84198111 0,4.561321 -3.8011,12.923742 -6.842,11.403302 -3.0408,-1.52044 -5.3215,-8.362421 -9.8828,-7.602201 -4.5614,0.76022 -4.5614,6.081761 -8.3625,3.04088 -3.8011,-3.04088 -5.3215,-6.0817608 -5.3215,-9.1226413 0,-3.0408806 -6.0818,-5.32154094 -6.0818,-5.32154094 0,0 -613.4976,-0.76022016 -611.21694,3.04088054 2.28066,3.8011006 8.36243,7.6022017 12.16353,9.1226417 3.8011,1.52044 -7.6022,2.28066 -11.40331,4.561321 -3.8011,2.28066 0,-0.760221 -6.08176,4.56132 -6.08176,5.321541 -17.48506,7.602202 -14.44418,15.964623 3.04088,8.362421 -0.76022,3.801101 0.76022,12.923742 1.52044,9.122642 -2.28066,22.046384 6.08176,25.847485 8.36242,3.8011 14.44418,-9.882862 14.44418,3.8011 0,13.683962 -6.84198,8.362422 -1.52044,15.964623 5.32155,7.602206 14.44419,8.362426 14.44419,8.362426 0,0 6.08176,6.08176 -7.6022,6.84198 -13.68397,0.76022 -21.28617,-2.28066 -31.92925,-1.52044 -10.64308,0.76022 -34.20991,0.76022 -26.6077,7.6022 7.6022,6.84198 4.56132,12.16352 9.12264,16.72484 4.56132,4.56132 9.12264,6.08176 12.92374,6.84198 3.8011,0.76022 8.36242,-3.8011 11.4033,-4.56132 3.04088,-0.76022 -6.08176,2.28066 12.16352,-0.76022 18.24529,-3.04088 19.00551,-4.56132 28.88837,-7.6022 9.88286,-3.04088 15.2044,-5.32154 15.2044,-5.32154 0,0 -1.52044,-4.56132 7.6022,-0.76022 9.12264,3.8011 15.2044,0.76022 15.96462,-4.56132 0.76022,-5.32154 3.04089,-11.4033 7.60221,-5.32154 4.56132,6.08176 6.08176,9.12264 9.88286,9.12264 3.8011,0 6.08176,-6.84198 21.28616,-8.36242 15.2044,-1.52044 23.56683,5.32154 16.72484,7.6022 -6.84198,2.28066 -12.92374,9.88286 -8.36242,11.4033 4.56132,1.52044 -5.32154,5.32154 -5.32154,5.32154 0,0 -12.92374,-7.6022 -9.88286,5.32154 3.04088,12.92374 5.32154,12.92374 9.12264,15.2044 3.8011,2.28066 9.88286,6.08177 6.84198,9.88287 -3.04088,3.8011 -15.2044,0.76022 -9.12264,8.36242 6.08176,7.6022 15.96462,3.04088 10.64308,10.64308 -5.32154,7.6022 -11.4033,5.32154 -12.16352,11.4033 -0.76022,6.08176 9.12264,35.73035 -9.12264,19.76572 -18.24528,-15.96462 -22.04638,-28.88836 -25.84748,-25.08726 -3.80111,3.8011 5.32154,9.88286 6.08176,16.72484 0.76022,6.84198 3.8011,15.20441 -10.64309,3.8011 -14.44418,-11.4033 -22.04638,-18.24528 -28.88836,-19.0055 -6.84198,-0.76022 -12.16352,-15.2044 -12.16352,2.28066 0,17.48506 9.12264,18.24528 16.72484,26.60771 7.6022,8.36242 -6.08176,12.92374 -13.68396,11.4033 -7.6022,-1.52044 -4.56132,10.64308 8.36242,13.68396 12.92374,3.04088 50.17453,1.52044 20.52594,8.36242 -29.64858,6.84198 -38.77122,-0.76022 -50.17453,0.76022 -11.4033,1.52044 -19.0055,-2.28066 -26.6077,3.04088 -7.6022,5.32154 -22.8066,18.24528 -33.44969,28.88837 -10.64308,10.64308 -28.12814,28.88836 -22.04638,39.53144 6.08176,10.64308 1.52044,18.24529 13.68396,30.40881 12.16353,12.16352 45.61321,-3.8011 52.45519,6.84198 6.84198,10.64308 1.52044,9.12264 19.0055,14.44418 17.48507,5.32154 25.84749,4.56132 41.05189,-1.52044 15.2044,-6.08176 36.49057,-12.92374 16.72484,-22.04638 -19.76572,-9.12264 -15.2044,3.04088 -25.08726,-13.68396 -9.88286,-16.72485 -14.44418,-25.84749 -4.56132,-31.16903 9.88286,-5.32154 4.56132,-2.28066 15.96462,-7.6022 11.4033,-5.32154 17.48507,-9.12264 19.76573,-0.76022 2.28066,8.36242 9.88286,16.72484 19.76572,5.32154 9.88286,-11.4033 6.84198,-12.16352 12.92374,-20.52594 6.08176,-8.36243 4.56132,-9.88287 17.48506,-14.44419 12.92375,-4.56132 6.84199,0 19.00551,-6.84198 12.16352,-6.84198 9.88286,-6.08176 19.0055,-8.36242 9.12264,-2.28066 15.96462,-1.52044 20.52594,-1.52044 4.56132,0 3.8011,4.56132 9.12265,-3.8011 5.32154,-8.36242 8.36242,-18.24528 15.2044,-21.28616 6.84198,-3.04088 11.4033,-7.6022 17.48506,-9.12264 6.08176,-1.52045 12.92374,0.76022 12.92374,0.76022 0,0 6.08176,15.2044 -0.76022,19.0055 -6.84198,3.8011 -2.28066,0 -17.48506,9.88286 -15.2044,9.88286 -31.16903,18.24528 -31.16903,18.24528 0,0 -7.6022,-3.8011 -10.64308,5.32154 -3.04088,9.12265 -9.88286,17.48507 9.12264,19.00551 19.00551,1.52044 32.68947,-4.56132 37.25079,-9.88286 4.56132,-5.32155 4.56132,-12.16353 9.12264,-11.40331 4.56132,0.76022 6.08176,17.48507 6.08176,17.48507 0,0 5.32154,6.84198 12.92375,2.28066 7.6022,-4.56132 12.92375,-11.4033 15.96465,-14.44419 3.0408,-3.04088 3.8011,-8.36242 9.8828,-8.36242 6.0818,0 14.4442,3.8011 19.0055,6.08176 4.5614,2.28066 3.8011,6.08177 -1.5204,7.60221 -5.3215,1.52044 -16.7249,6.84198 -19.7657,9.12264 -3.0409,2.28066 -13.68399,9.88286 -14.44421,15.2044 -0.76022,5.32154 -16.72485,5.32154 0,14.44418 16.72481,9.12264 8.36241,3.8011 19.00551,10.64308 10.6431,6.84198 22.8066,15.96463 24.327,20.52595 1.5205,4.56132 6.0818,3.8011 -4.5613,8.36242 -10.6431,4.56132 -23.5668,11.4033 -23.5668,11.4033 0,0 11.4033,18.24528 -9.1227,8.36242 -20.5259,-9.88286 -9.12259,-20.52594 -28.1281,-9.12264 -19.0055,11.4033 -25.08726,12.16352 -40.29166,22.04638 -15.20441,9.88287 -34.20991,17.48507 -35.73035,22.04639 -1.52044,4.56132 -11.4033,8.36242 -19.0055,8.36242 -7.6022,0 -12.16352,-4.56132 -26.60771,-1.52044 -14.44418,3.04088 -30.4088,6.08176 -41.8121,9.88286 -11.40331,3.8011 -16.72485,6.08176 -34.97013,11.4033 -18.24528,5.32154 -31.16903,6.08176 -45.61321,15.2044 -14.44418,9.12265 -27.36792,22.80661 -27.36792,29.64859 0,6.84198 3.8011,15.96462 3.8011,15.96462 0,0 19.76572,-6.08176 10.64308,1.52044 -9.12264,7.6022 -18.24528,10.64308 -16.72484,16.72485 1.52044,6.08176 3.04088,9.12264 10.64308,9.12264 7.6022,0 8.36242,1.52044 19.76572,-3.04088 11.4033,-4.56132 10.64308,-12.92375 17.48507,-15.20441 6.84198,-2.28066 1.52044,-4.56132 20.52594,3.04088 19.0055,7.60221 26.6077,11.40331 38.01101,11.40331 11.4033,0 13.68396,3.8011 26.6077,-0.76022 12.92374,-4.56132 12.92374,-5.32154 19.76572,-2.28066 6.84198,3.04088 12.16353,5.32154 16.72485,6.08176 4.56132,0.76022 15.2044,3.04088 20.52594,6.08176 5.32154,3.04088 6.46187,12.92374 -5.70165,10.64308 -12.16352,-2.28066 -4.94143,-14.44418 -16.34473,-8.36242 -11.40331,6.08176 -3.04089,7.98231 3.04087,12.54363 6.08177,4.56132 0.76023,3.42099 2.28067,7.22209 1.52044,3.8011 3.8011,10.64308 -6.84198,11.4033 -10.64309,0.76022 -28.12815,-5.32154 -31.16903,0.76022 -3.04088,6.08176 8.36242,15.20441 8.36242,15.20441 l 0,17.48506 0,15.2044 c 0,0 -19.06991,-2.88455 -26.6077,-6.08176 -7.30796,-3.09973 1.66182,3.86997 -19.00551,-8.36242 -12.14646,-7.18913 -8.45384,-10.99406 -20.52594,-16.72484 -9.93554,-4.71652 -0.0698,0.11632 -22.04638,-7.6022 -23.23107,-8.15911 -22.80661,-6.08177 -34.20991,-6.08177 -11.4033,0 -43.33255,1.52044 -23.56682,10.64309 19.76572,9.12264 28.12814,12.16352 37.25078,16.72484 9.12264,4.56132 15.20441,4.56132 19.00551,9.12264 3.8011,4.56132 11.4033,15.2044 4.56132,22.04638 -6.84198,6.84199 -17.86518,-2.28066 -11.78342,19.76573 6.08177,22.04638 4.94144,22.04638 13.30386,19.76572 8.36242,-2.28066 5.90383,-19.54455 13.30385,-21.28616 6.90566,-1.62526 5.80621,-2.79691 16.34473,0 8.37781,2.22346 11.02319,0.38011 17.10496,-2.66077 6.08176,-3.04088 8.74253,-2.66077 19.38561,-4.18121 C 837.76258,644.23978 841.56368,645 849.16588,645 c 7.6022,0 16.34473,-3.04088 23.94694,0.76022 7.6022,3.8011 15.2044,1.52044 22.04638,6.84198 6.84198,5.32154 20.14583,6.84198 33.06957,6.08176 12.92375,-0.76022 18.245,6.08029 22.04639,5.32154 3.84759,-0.76797 24.26376,7.42269 18.62539,8.36242 0,0 11.4033,1.52044 19.76572,3.8011 8.36243,2.28066 42.57233,-4.94143 50.17463,-4.94143 7.6022,0 19.0551,3.30794 29.6485,2.28066 18.3569,-1.78014 23.9942,6.97579 25.0873,11.4033 1.128,4.56938 -0.1528,8.74253 -1.1404,15.58451 2.2806,6.84199 1.4922,15.77885 4.9415,25.84749 9.1041,26.57527 4.5612,22.04638 3.801,27.36792 -0.7602,5.32154 -3.801,19.00551 1e-4,34.20991 3.8011,15.2044 1.5204,22.8066 1.5204,49.41431 0,26.6077 -1.9006,186.25391 -2.6608,199.17771 -0.7602,12.9237 -0.3801,114.7932 -4.1812,130.7578 -3.8011,15.9646 0.3801,115.1734 1.1404,125.8165 0.7602,10.6431 10.2629,145.9622 -4.9415,150.5235 -15.2044,4.5614 -12.9237,7.9823 -30.4087,10.263 -17.4851,2.2806 -17.4851,5.3215 -37.2508,12.9237 -19.7657,7.6022 -38.01108,13.684 -44.09285,16.7249 -6.08176,3.0409 -19.38561,3.4209 -30.78891,7.9822 -11.4033,4.5614 -25.42051,3.938 -37.6309,6.462 -11.08258,2.2909 -20.33463,5.9307 -22.42649,15.9646 -2.36833,11.36 5.32154,22.0464 22.8066,29.6486 17.48506,7.6022 31.54913,3.8011 42.19222,6.842 10.64308,3.0409 40.29166,6.4618 49.41433,8.7425 9.1226,2.2806 33.4497,5.7016 44.853,7.9823 11.4033,2.2807 25.4674,3.421 39.9116,7.2221 14.4442,3.8011 45.3059,2.7442 45.3059,2.7442 z"
     id="path3098"
     inkscape:connector-curvature="0"
     sodipodi:nodetypes="csssssssssssssssssssssssssssssssssssssssssssscssssssssssssssssscccscsssssssccsssssssssssccscscssscssssssssssscsscsccscsssssssscsssscsssssscsssssccccsssssssscssscsscccssssccscssscssssssssscsssssssscssssssscsssssssssssssssssssssssssssssssssssssscsscsssscscssscssscscsssssssssscssssssssssssssssscccsssssssssssssssssssscsssscsssssssssssssssssssc" />
  <path
     style="fill:none;stroke:#000000;stroke-width:1px;stroke-linecap:butt;stroke-linejoin:miter;stroke-opacity:1"
     d="m 1424.5255,1144.7984 c 0,0 13.439,-2.1502 15.5892,8.6009 2.1502,10.7512 -6.4507,10.2136 -12.9014,9.6761 -6.4507,-0.5376 -27.9529,6.9882 -33.3285,4.3004 -5.3756,-2.6878 -5.9131,-3.7629 -5.9131,-3.7629 0,0 -8.5955,-4.8279 0.5375,-9.676 9.127,-4.8449 10.7019,-2.0723 18.2769,-4.838 0.5376,-6.9882 3.763,-242.97568 1.6127,-247.27614 -2.1502,-4.30045 2.1503,-21.50227 1.0751,-25.80272 -1.0751,-4.30046 -18.2769,-10e-6 -18.2769,-5.91313 0,-5.91313 3.2254,-19.88961 7.5258,-21.50228 4.3005,-1.61267 17.2018,6.98825 25.2651,3.76291 8.0634,-3.22534 19.3521,-1.61267 25.2652,2.68778 5.9131,4.30046 4.838,16.12671 -2.6878,19.88961 -7.5257,3.76289 -15.5891,-6.98825 -18.8144,4.838 -3.2254,11.82625 -3.7629,202.65887 -1.6127,207.49697 2.1502,4.838 -1.6127,57.5185 -1.6127,57.5185 z"
     id="path3271"
     inkscape:connector-curvature="0"
     sodipodi:nodetypes="cscscscccsssssssc" />
  <path
     style="fill:none;stroke:#000000;stroke-width:1px;stroke-linecap:butt;stroke-linejoin:miter;stroke-opacity:1"
     d="m 3057.6904,1135.7943 c 0.2801,-0.2801 -2.594,6.9617 1.5454,7.929 4.5692,0.5376 -0.1344,2.2847 -0.4031,4.4349 -0.2688,2.1502 -10e-5,18.4785 2.4189,19.016 2.419,0.5376 12.6998,1.8143 12.431,-1.9486 -0.2687,-3.7629 1.6799,-12.095 -0.2016,-13.7077 -1.439,-1.6496 -3.134,-5.372 -3.6284,-6.3163 -0.7053,-1.347 4.166,-3.8973 3.3597,-6.0475 -0.8064,-2.1502 -1.6127,-4.3005 -3.2254,-2.6878 -1.6126,1.6127 -4.7035,8.4666 -5.7787,6.5851 -1.0751,-1.8814 0.4032,-7.6602 -2.2846,-8.1978 -2.6878,-0.5375 -4.2332,0.9407 -4.2332,0.9407 z"
     id="path3273"
     inkscape:connector-curvature="0"
     sodipodi:nodetypes="ccccccsccccc" />
</svg>
