<?xml version="1.0" encoding="iso-8859-1"?>
<!-- Generator: Adobe Illustrator 16.0.0, SVG Export Plug-In . SVG Version: 6.00 Build 0)  -->
<!DOCTYPE svg PUBLIC "-//W3C//DTD SVG 1.1//EN" "http://www.w3.org/Graphics/SVG/1.1/DTD/svg11.dtd">
<svg version="1.1" id="&#x5716;&#x5C64;_1" xmlns="http://www.w3.org/2000/svg" xmlns:xlink="http://www.w3.org/1999/xlink" x="0px"
	 y="0px" width="1024px" height="768px" viewBox="0 0 1024 768" style="enable-background:new 0 0 1024 768;" xml:space="preserve">
<rect style="fill-rule:evenodd;clip-rule:evenodd;" width="1024" height="768"/>
<g>
	<g>
		<path style="fill-rule:evenodd;clip-rule:evenodd;" d="M493.849,531.398c-24.186-1.152-48.734-2.945-72.475-4.679l-9.545-0.695
			c-1.207-0.087-1.968-0.924-3.021-2.082c-0.502-0.553-1.127-1.24-1.939-2.009l-0.75-0.711l12.493-37.628l-16.16-7.535
			l14.522-36.478c-13.929-8.421-14.079-9.589-9.294-26.355c1.745-6.116,3.498-12.178,5.25-18.239
			c4.467-15.447,9.086-31.42,13.242-47.222c3.125-11.874,8.963-17.169,18.932-17.169c1.375,0,2.859,0.105,4.41,0.313
			c6.205,0.83,12.655,0.957,18.893,1.08c4.329,0.085,8.805,0.173,13.206,0.493c0.716,0.052,1.411,0.078,2.063,0.078
			c6.943,0,10.553-2.818,12.07-9.425c3.671-15.994,13.973-19.333,29.406-19.538c1.875-0.025,3.349-0.035,4.581-0.035
			c2.343,0,3.816,0.036,5.523,0.079c0.752,0.019,1.549,0.038,2.487,0.057c8.211,0.157,13.374,0.482,15.831,3.676
			c2.569,3.339,1.4,9.119-0.832,18.24l-0.272,1.113l-28.066,2.879c11.095,11.328,7.662,23.325,4.335,34.954l-0.043,0.151
			c-3.27,11.421-6.124,23.185-8.885,34.561c-1.943,8.01-3.954,16.293-6.095,24.402c-3.67,13.903-6.356,17.668-18.26,17.668
			c-1.567,0-3.418-0.061-5.824-0.188c-8.135-0.436-16.328-1.008-25.001-1.614c-3.664-0.256-7.437-0.52-11.365-0.784l-5.409,14.662
			l77.833,5.758l-0.615,1.957c-1.763,5.606-3.464,11.08-5.132,16.448c-4.994,16.069-9.711,31.248-14.93,46.239
			c-1.257,3.615-6.959,7.586-10.894,7.587C494.029,531.405,493.938,531.403,493.849,531.398z M481.717,507.094l8.909-27.139
			c-4.458-0.47-8.474-0.939-12.072-1.36c-7.726-0.903-13.828-1.617-18.399-1.617c-12.214,0-14.097,4.226-18.6,30.116H481.717z
			 M439.934,407.093c3.482,0.283,6.861,0.586,10.145,0.88c9.884,0.885,19.22,1.721,28.436,1.771c2.816,0,7.779-3.449,8.583-5.953
			c3.058-9.529,5.392-19.315,7.862-29.676c0.792-3.323,1.599-6.703,2.447-10.151c-3.48-0.199-6.813-0.427-10.051-0.648
			c-7.25-0.496-14.099-0.963-20.718-0.963c-1.706,0-3.305,0.03-4.889,0.091c-3.888,0.151-9.679,3.496-10.682,6.17
			c-3.354,8.94-5.81,18.313-8.41,28.234C441.785,400.172,440.889,403.593,439.934,407.093z"/>
		<path style="fill:#FFFFFF;" d="M529.734,305.186c3.354,0,4.918,0.075,7.979,0.135c16.905,0.323,17.897,1.737,13.452,19.905
			c-9.996,1.024-20.249,2.077-30.502,3.129c13.544,11.418,10.09,23.256,6.471,35.907c-5.581,19.497-9.809,39.378-14.988,58.995
			c-3.561,13.489-5.796,16.458-16.689,16.458c-1.691,0-3.591-0.071-5.737-0.187c-11.879-0.635-23.744-1.555-37.558-2.479
			c-2.302,6.24-4.123,11.176-6.576,17.826c25.774,1.906,50.306,3.723,77.939,5.767c-7.046,22.405-13.097,42.679-20.046,62.641
			c-1.028,2.955-6.161,6.496-9.359,6.496c-0.066,0-0.13-0.002-0.195-0.005c-27.351-1.304-54.665-3.39-81.979-5.372
			c-0.902-0.064-1.702-1.511-3.959-3.649c3.989-12.014,8.238-24.815,12.623-38.021c-5.035-2.35-9.639-4.495-16.081-7.498
			c5.033-12.642,9.775-24.552,14.465-36.333c-14.482-8.71-14.467-8.705-9.737-25.279c6.219-21.801,12.723-43.525,18.488-65.444
			c2.698-10.254,7.43-15.958,17.36-15.958c1.306,0,2.701,0.098,4.194,0.298c10.611,1.419,21.479,0.803,32.197,1.582
			c0.75,0.054,1.478,0.083,2.182,0.083c7.108,0,11.859-2.873,13.653-10.686c3.43-14.944,12.976-18.08,27.844-18.277
			C527.041,305.196,528.508,305.186,529.734,305.186 M478.533,411.369c3.49,0,9.076-3.854,10.112-7.082
			c4.24-13.214,7.086-26.874,10.811-41.838c-12.223-0.647-22.667-1.722-32.818-1.722c-1.657,0-3.305,0.028-4.952,0.092
			c-4.277,0.167-10.809,3.674-12.141,7.223c-4.714,12.565-7.625,25.806-11.698,40.514c14.858,1.165,27.754,2.742,40.66,2.813
			C478.515,411.369,478.524,411.369,478.533,411.369 M439.625,508.719c14.25,0,28.283,0,43.269,0
			c3.111-9.479,6.198-18.882,9.905-30.172c-15.297-1.562-25.536-3.194-32.644-3.194C445.915,475.353,444.24,481.906,439.625,508.719
			 M529.734,301.936c-1.238,0-2.719,0.01-4.603,0.035c-15.771,0.208-27.073,3.826-30.968,20.799
			c-1.332,5.798-4.37,8.163-10.486,8.163c-0.614,0-1.269-0.025-1.946-0.074c-4.443-0.323-8.941-0.411-13.291-0.497
			c-6.193-0.122-12.596-0.248-18.71-1.065c-1.621-0.217-3.178-0.327-4.625-0.327c-14.043,0-18.427,10.49-20.503,18.381
			c-4.151,15.784-8.768,31.748-13.232,47.186c-1.724,5.961-3.506,12.124-5.238,18.194l-0.014,0.05
			c-2.554,8.949-3.836,13.441-2.225,17.611c1.45,3.751,4.758,6.046,11.062,9.869l-11.147,27.999l-2.298,5.772l-1.135,2.852
			l2.782,1.296l2.603,1.214c4.088,1.905,7.463,3.479,10.854,5.061l-4.581,13.798l-7.13,21.477l-0.651,1.962l1.501,1.422
			c0.767,0.727,1.344,1.362,1.854,1.922c1.158,1.274,2.251,2.477,4.109,2.609l9.542,0.695c23.75,1.734,48.309,3.528,72.515,4.682
			c0.116,0.006,0.232,0.009,0.35,0.009c4.573,0,10.962-4.461,12.429-8.679c5.227-15.016,9.948-30.206,14.946-46.289
			c1.667-5.367,3.368-10.839,5.131-16.444l1.23-3.913l-4.092-0.303l-38.884-2.877l-34.753-2.571l2.461-6.671l1.78-4.826
			c3.494,0.237,6.866,0.473,10.151,0.702c8.679,0.607,16.877,1.18,25.026,1.615c2.435,0.131,4.313,0.191,5.911,0.191
			c5.628,0,10.065-0.706,13.422-4.152c2.908-2.985,4.496-7.479,6.409-14.727c2.146-8.125,4.157-16.415,6.103-24.433
			c2.757-11.361,5.607-23.108,8.868-34.497l0.043-0.151c3.229-11.285,6.552-22.905-2.551-34.111l23.745-2.436l2.281-0.233
			l0.545-2.227c2.564-10.481,3.453-15.833,0.541-19.618c-2.901-3.771-8.392-4.144-17.088-4.31c-0.935-0.018-1.729-0.038-2.478-0.056
			C533.58,301.973,532.097,301.936,529.734,301.936L529.734,301.936z M442.013,405.634c0.768-2.851,1.5-5.646,2.215-8.375
			c2.589-9.881,5.035-19.213,8.359-28.076c0.715-1.906,5.787-4.983,9.224-5.117c1.563-0.061,3.142-0.09,4.826-0.09
			c6.564,0,13.385,0.466,20.607,0.959c2.635,0.18,5.331,0.365,8.12,0.534c-0.684,2.808-1.342,5.569-1.986,8.268
			c-2.463,10.33-4.791,20.087-7.829,29.556c-0.593,1.849-4.922,4.825-7.018,4.825v3.25l-0.013-3.25
			c-9.143-0.051-18.446-0.883-28.295-1.765C447.552,406.115,444.817,405.87,442.013,405.634L442.013,405.634z M443.491,505.469
			c4.297-24.264,6.261-26.866,16.665-26.866c4.476,0,10.537,0.709,18.21,1.606c3.056,0.357,6.414,0.75,10.09,1.148l-7.916,24.111
			H443.491L443.491,505.469z"/>
	</g>
	<g>
		<path style="fill-rule:evenodd;clip-rule:evenodd;" d="M618.438,451.798c-5.174,0-11.559-1.41-20.701-4.572l-1.684-0.583
			l37.074-82.01c-5.35-0.639-9.35-1.077-12.437-1.077c-8.355,0-9.653,2.925-15.892,16.98c-3.198,7.204-6.386,14.414-9.572,21.624
			c-4.061,9.187-8.121,18.373-12.206,27.55c-6.79,15.258-11.104,21.944-23.917,21.945c-4.984,0-11.174-0.959-18.933-2.398
			l-1.654-0.307l0.365-1.644c0.336-1.512,0.606-3.089,0.869-4.614c0.583-3.391,1.187-6.897,2.554-10.109
			c23.894-56.133,46.087-107.857,67.849-158.129c4.371-10.095,9.263-16.352,20.129-16.352c4.658,0,10.517,1.084,18.997,3.516
			l1.708,0.49l-31.316,81.097c3.96-0.004,7.773-0.017,11.483-0.029c4.164-0.014,8.196-0.027,12.152-0.027
			c5.88,0,10.702,0.031,15.176,0.096c8.646,0.125,13.411,0.77,15.464,3.94c2.08,3.212,0.657,7.981-2.894,16.218
			c-9.745,22.608-19.429,44.623-30.17,68.997c-5.278,11.975-10.874,19.397-22.442,19.398
			C618.439,451.798,618.438,451.798,618.438,451.798z"/>
		<path style="fill:#FFFFFF;" d="M630.282,259.728c4.764,0,10.741,1.214,18.549,3.453c-10.227,26.482-20.394,52.811-31.53,81.651
			c9.328,0,17.828-0.057,26.008-0.057c5.135,0,10.143,0.022,15.15,0.096c16.319,0.237,17.742,2.486,11.102,17.89
			c-9.935,23.047-20.044,46.018-30.165,68.985c-5.61,12.729-10.966,18.429-20.955,18.429c-5.224,0-11.713-1.558-20.173-4.483
			c12.4-27.43,24.735-54.718,37.253-82.406c-6.518-0.785-11.235-1.353-14.83-1.353c-9.405,0-11.137,3.886-17.377,17.946
			c-7.273,16.384-14.487,32.795-21.777,49.172c-6.921,15.553-10.84,20.981-22.433,20.981c-4.708,0-10.681-0.896-18.636-2.371
			c1.084-4.879,1.438-9.987,3.332-14.44c22.463-52.772,45.061-105.486,67.845-158.119
			C616.287,264.377,620.961,259.728,630.282,259.728 M630.282,256.478L630.282,256.478c-11.716,0-17.116,6.928-21.62,17.331
			c-21.763,50.274-43.957,102.001-67.853,158.138c-1.441,3.387-2.061,6.988-2.66,10.471c-0.271,1.576-0.527,3.063-0.854,4.537
			l-0.729,3.286l3.31,0.614c7.847,1.456,14.119,2.426,19.229,2.426c13.707,0,18.472-7.337,25.402-22.91
			c4.085-9.178,8.213-18.518,12.206-27.55c3.187-7.21,6.374-14.42,9.572-21.625c6.404-14.43,7.345-16.015,14.406-16.015
			c2.566,0,5.836,0.318,10.041,0.806l-19.212,42.5l-16.213,35.864l-1.468,3.246l3.366,1.164c9.321,3.224,15.871,4.662,21.235,4.662
			c12.409,0,18.541-8.143,23.929-20.368c10.742-24.376,20.428-46.394,30.176-69.009c3.779-8.766,5.244-13.917,2.766-17.745
			c-2.452-3.787-7.583-4.547-16.805-4.681c-4.481-0.065-9.311-0.096-15.197-0.096c-3.959,0-7.993,0.014-12.159,0.027
			c-2.962,0.01-5.991,0.02-9.108,0.025l26.2-67.847l3.622-9.378l1.28-3.315l-3.417-0.979
			C641.095,257.581,635.098,256.478,630.282,256.478L630.282,256.478z"/>
	</g>
	<g>
		<path style="fill-rule:evenodd;clip-rule:evenodd;" d="M79.07,459.097c-9.921,0-17.99-0.072-25.393-0.228
			c-8.073-0.172-12.702-1.79-15.011-5.248c-2.358-3.531-2.035-8.631,1.049-16.533c14.967-38.35,30.548-77.195,45.616-114.762
			l2.679-6.68c3.393-8.457,12.473-15.029,21.591-15.627c3.061-0.201,7.36-0.298,13.143-0.298c5.594,0,11.809,0.086,18.389,0.177
			c6.586,0.091,13.397,0.186,19.526,0.186c0.951,0,3.043-0.008,3.043-0.008c5.832,0,9.719,1.209,12.234,3.806
			c2.188,2.259,3.227,5.574,3.09,9.853c-0.35,10.852-8.805,12.198-15.134,12.266c-2.528,0.027-5.058,0.037-7.587,0.037
			c-3.721,0-7.442-0.022-11.162-0.044c-3.71-0.022-7.42-0.044-11.126-0.044l-2.389,0.003c-6.898,0.02-12.958,4.3-15.438,10.906
			l-0.908,2.417c-3.196,8.516-4.926,13.122-8.13,21.471c2.541-0.001,14.499-0.012,14.499-0.012c3.157,0,6.146,0.005,9.136,0.021
			l0.447,0.001c0.56,0,1.127-0.005,1.699-0.011c0.59-0.005,1.184-0.011,1.777-0.011c5.221,0,14.939,0,15.189,11.568
			c0.088,4.113-0.865,7.13-2.914,9.224c-2.9,2.963-7.44,3.372-11.915,3.372c-0.757,0-1.517-0.011-2.271-0.022
			c-0.728-0.01-1.45-0.021-2.16-0.021l-0.666,0.003c-3.778,0.041-7.86,0.06-12.846,0.06c-3.212,0-6.468-0.007-9.804-0.015
			c-3.15-0.007-6.37-0.015-9.688-0.017l-17.265,43.284c4.251,0.004,8.3,0.019,12.202,0.031c4.245,0.015,8.315,0.029,12.284,0.029
			c6.376,0,11.563-0.038,16.322-0.121c0.395-0.007,0.787-0.011,1.173-0.011c8.354,0,16.902,1.781,16.949,14.987
			c0.019,5.338-1.246,9.211-3.865,11.84c-2.797,2.807-7.039,4.114-13.349,4.114l-0.284-0.001c-3.319-0.021-6.64-0.028-9.96-0.028
			c-5.46,0-10.921,0.021-16.382,0.042C89.998,459.076,84.533,459.097,79.07,459.097z"/>
		<path style="fill:#FFFFFF;" d="M122.744,301.345c11.346,0,25.827,0.363,37.917,0.363c0.954,0,1.89-0.002,2.811-0.007
			c0.077,0,0.155,0,0.232,0c8.133,0,14.007,2.396,13.7,11.981c-0.284,8.814-6.346,10.616-13.528,10.693
			c-2.522,0.027-5.046,0.037-7.57,0.037c-7.433,0-14.868-0.088-22.291-0.088c-0.797,0-1.593,0.001-2.39,0.003
			c-8.149,0.023-14.476,5.358-16.955,11.959c-4.159,11.077-5.803,15.479-9.882,26.084c6.479,0,11.88-0.013,16.865-0.013
			c3.154,0,6.14,0.005,9.126,0.021c0.151,0.001,0.304,0.001,0.456,0.001c1.137,0,2.307-0.021,3.476-0.021
			c6.698,0,13.364,0.69,13.564,9.978c0.216,10.039-6.365,10.936-13.204,10.936c-1.487,0-2.986-0.042-4.43-0.042
			c-0.23,0-0.457,0.001-0.684,0.003c-4.248,0.046-8.498,0.06-12.829,0.06c-6.579,0-13.348-0.032-20.592-0.032
			c-5.809,14.565-11.428,28.653-18.562,46.533c9.846,0,18.587,0.062,26.882,0.062c5.585,0,10.969-0.028,16.351-0.121
			c0.385-0.007,0.768-0.011,1.145-0.011c8.853,0,15.284,1.993,15.324,13.368c0.04,11.217-5.9,14.323-15.589,14.323
			c-0.091,0-0.183,0-0.274-0.001c-3.323-0.021-6.646-0.028-9.969-0.028c-10.925,0-21.852,0.084-32.775,0.084
			c-8.455,0-16.907-0.05-25.358-0.228c-14.595-0.31-17.958-5.535-12.482-19.565c15.837-40.577,32.076-81,48.29-121.428
			c3.133-7.809,11.72-14.055,20.189-14.61C113.054,301.42,117.575,301.345,122.744,301.345 M122.744,298.095
			c-5.818,0-10.152,0.099-13.249,0.302c-9.709,0.637-19.379,7.637-22.993,16.644l-2.683,6.688
			c-15.068,37.568-30.649,76.415-45.618,114.768c-3.297,8.448-3.571,14.008-0.887,18.026c2.634,3.945,7.67,5.786,16.328,5.97
			c7.414,0.156,15.493,0.229,25.427,0.229c5.466,0,10.933-0.021,16.399-0.042c5.459-0.021,10.918-0.042,16.376-0.042
			c3.316,0,6.633,0.008,9.949,0.028l0.294,0.001c6.771,0,11.378-1.459,14.5-4.592c2.94-2.951,4.36-7.201,4.339-12.993
			c-0.053-14.719-9.954-16.606-18.574-16.606c-0.396,0-0.796,0.004-1.201,0.011c-4.75,0.083-9.928,0.121-16.295,0.121
			c-3.966,0-8.035-0.015-12.277-0.029c-3.164-0.011-6.424-0.021-9.811-0.027c5.985-15.002,10.937-27.415,15.97-40.037
			c2.929,0.002,5.784,0.009,8.583,0.016c3.336,0.008,6.594,0.016,9.807,0.016c4.993,0,9.081-0.02,12.864-0.061
			c0.215-0.002,0.431-0.003,0.649-0.003c0.701,0,1.416,0.01,2.136,0.021c0.762,0.011,1.53,0.021,2.294,0.021
			c4.829,0,9.755-0.468,13.076-3.86c2.338-2.389,3.474-5.886,3.377-10.395c-0.284-13.158-11.867-13.158-16.813-13.158
			c-0.599,0-1.197,0.006-1.792,0.011c-0.567,0.005-1.129,0.011-1.684,0.011l-0.438-0.001c-2.993-0.016-5.985-0.021-9.145-0.021
			c-2.33,0-4.751,0.002-7.332,0.005c-1.54,0.001-3.137,0.003-4.804,0.005c2.691-7.027,4.386-11.541,7.292-19.284l0.903-2.406
			c2.241-5.967,7.705-9.834,13.921-9.852c0.793-0.002,1.587-0.003,2.381-0.003c3.704,0,7.411,0.022,11.119,0.044
			c3.723,0.022,7.448,0.044,11.172,0.044c2.774,0,5.262-0.012,7.605-0.037c4.031-0.043,16.3-0.175,16.741-13.838
			c0.152-4.736-1.042-8.449-3.547-11.036c-3.733-3.855-9.437-4.301-13.401-4.301l-0.25,0c-0.915,0.005-1.845,0.007-2.793,0.007
			c-6.118,0-12.923-0.095-19.504-0.186C134.57,298.182,128.35,298.095,122.744,298.095L122.744,298.095z"/>
	</g>
	<g>
		<path style="fill-rule:evenodd;clip-rule:evenodd;" d="M693.441,453.843c-4.471,0-10.497-1.151-18.524-2.778l-1.759-0.356
			l48.869-158.232h-50.48l-0.201-1.393c-1.706-11.819-1.042-18.22,2.291-22.095c2.799-3.253,7.32-4.663,15.12-4.715
			c15.03-0.102,30.863-0.151,48.401-0.151c17.655,0,34.895,0.048,53.146,0.098l20.681,0.054c0.496-0.042,1.1-0.05,1.822-0.06
			c1.648-0.021,4.539-0.051,9.506-0.089l1.899-0.015l-0.279,1.878c-3.395,22.845-4.602,25.787-24.702,26.406
			c-0.893,0.028-1.8,0.04-2.715,0.04c-3.356,0-6.895-0.166-10.315-0.326c-3.424-0.16-6.965-0.326-10.324-0.326
			c-6.134,0-13.845,0.477-19.069,4.191c-2.123,1.51-6.542,13.233-13.134,34.847c-0.497,1.629-0.874,2.864-1.093,3.536
			c-9.435,28.994-18.923,58.51-28.099,87.055l-3.84,11.944C705.956,447.929,703.647,453.843,693.441,453.843z"/>
		<path style="fill:#FFFFFF;" d="M737.16,265.747c24.256,0,48.218,0.091,73.567,0.152c0.205,0,0.324,0.001,0.384,0.001
			c0.588,0-4.494-0.027,11.215-0.149c-3.304,22.233-4.062,24.433-23.145,25.021c-0.876,0.027-1.767,0.039-2.665,0.039
			c-6.663,0-13.87-0.651-20.64-0.652c-7.731,0-14.889,0.85-20.011,4.492c-4.265,3.032-13.323,34.573-14.83,39.204
			c-10.729,32.974-21.326,65.994-31.94,99.005c-4.646,14.449-6.652,19.358-15.654,19.358c-4.209,0-9.947-1.073-18.201-2.746
			c16.157-52.321,32.245-104.405,48.989-158.621c-18.551,0-35.06,0-51.275,0c-2.808-19.453,0.536-24.851,15.813-24.953
			C705.332,265.786,721.31,265.747,737.16,265.747 M826.1,262.471l-3.799,0.029c-4.971,0.039-7.864,0.068-9.515,0.089
			c-0.842,0.011-1.366,0.021-1.681,0.028c-0.164,0.004-0.32,0.014-0.469,0.03c-6.866-0.016-13.631-0.035-20.327-0.053
			c-18.248-0.05-35.484-0.098-53.138-0.098v3.25l-0.004-3.25c-17.551,0-33.387,0.049-48.422,0.151
			c-8.318,0.055-13.205,1.634-16.341,5.28c-4.295,4.993-4.173,12.96-2.668,23.387l0.402,2.786h2.814h46.87l-16.484,53.372
			l-31.205,101.041l-1.06,3.431l3.52,0.714c8.12,1.646,14.225,2.811,18.847,2.811c11.798,0,14.414-8.136,18.748-21.613l3.836-11.932
			c9.177-28.548,18.666-58.067,28.102-87.063c0.226-0.695,0.593-1.898,1.101-3.564c1.442-4.728,3.855-12.64,6.383-19.842
			c4.093-11.665,5.832-13.838,6.189-14.189c3.783-2.666,9.363-3.855,18.077-3.855c3.322,0,6.843,0.165,10.248,0.325
			c3.44,0.161,6.997,0.328,10.392,0.328c0.963,0,1.894-0.014,2.765-0.041c9.03-0.278,15.738-0.835,19.832-5.498
			c3.582-4.08,4.668-10.45,6.428-22.294L826.1,262.471L826.1,262.471z"/>
	</g>
	<g>
		<path style="fill-rule:evenodd;clip-rule:evenodd;" d="M382.041,437.252c-17.678-10.333-24.561-23.577-21.04-40.491
			c3.864-18.575,9.349-36.813,15.594-57.02c2.702-8.742,10.873-14.848,19.87-14.848c2.136,0,4.253,0.34,6.294,1.01
			c3.94,1.297,9.206,8.022,8.286,11.663c-6.441,25.468-13.4,50.716-20.767,77.448c-1.926,6.987-3.877,14.066-5.85,21.265
			l-0.56,2.041L382.041,437.252z"/>
		<path style="fill:#FFFFFF;" d="M396.465,326.518c1.921,0,3.87,0.299,5.787,0.929c3.269,1.076,7.874,7.125,7.218,9.721
			c-8.125,32.125-17.109,64.029-26.609,98.681c-18.493-10.809-23.377-23.821-20.269-38.757c3.997-19.21,9.753-38.096,15.556-56.871
			C380.729,331.869,388.345,326.518,396.465,326.518 M396.466,323.268L396.466,323.268c-9.703,0-18.512,6.577-21.422,15.994
			c-6.258,20.247-11.754,38.523-15.633,57.168c-3.681,17.684,3.453,31.496,21.81,42.225l3.655,2.137l1.119-4.083
			c1.973-7.197,3.924-14.275,5.85-21.263c7.37-26.739,14.331-51.996,20.776-77.48c1.217-4.821-5.121-12.212-9.353-13.605
			C401.062,323.635,398.773,323.268,396.466,323.268L396.466,323.268z"/>
	</g>
	<g>
		<path d="M811.457,481.59c-2.037,0-3.805-0.871-5.113-2.519c-4.47-5.63-3.831-20.956,1.896-45.553
			c6.007-22.725,27.502-104.253,27.502-104.253c0.165-0.706,4.341-18.382,8.633-27.233c2.965-6.115,8.206-9.482,14.759-9.482
			c9.577,0,19.354,7.322,23.247,17.41c7.007,18.154,13.985,36.498,21.374,55.919c2.767,7.272,5.606,14.737,8.551,22.463
			c2.382-6.89,4.696-13.568,6.955-20.09c6.689-19.305,13.007-37.54,19.136-55.651c1.411-4.17,2.611-8.515,3.772-12.716
			c1.184-4.284,2.408-8.713,3.866-13.008c3.417-10.063,11.859-16.314,22.031-16.314c3.563,0,7.118,0.785,10.564,2.333
			c9.918,4.454,7.34,12.35,5.457,18.115c-0.256,0.783-0.508,1.555-0.73,2.31c-6.356,21.612-13.066,43.508-19.555,64.683
			c-2.313,7.546-4.625,15.092-6.927,22.641c-1.792,5.877-3.597,11.751-5.4,17.625c-4.076,13.275-8.292,27.003-12.294,40.542
			c-2.56,8.656-6.688,16.992-19.455,17.947c-0.407,0.031-0.809,0.24-1.21,0.24c-0.001,0-0.002,0-0.003,0
			c-13.262,0-22.151-16.545-25.358-23.574c-4.62-10.129-8.506-18.074-12.265-25.666c-3.775-7.626-7.679-15.56-12.388-25.858
			c-1.89-4.132-5.578-11.451-8.09-16.112c-1.144,4.474-3.454,13.527-7.86,30.884c-1.235,4.865-2.409,9.875-3.545,14.726
			c-3.149,13.448-6.405,27.351-11.589,41.088C832.592,465.662,819.932,481.59,811.457,481.59z"/>
		<path style="fill:#FFFFFF;" d="M968.065,272.188c3.238,0,6.599,0.708,9.898,2.19c9.755,4.381,5.724,12.062,3.834,18.484
			c-8.581,29.175-17.607,58.219-26.478,87.309c-5.912,19.39-11.952,38.742-17.698,58.181c-2.74,9.27-6.767,15.752-18.018,16.595
			c-0.367,0.027-0.729,0.041-1.091,0.041c-11.205,0-19.572-12.986-23.881-22.431c-9.24-20.254-15.234-30.779-24.653-51.379
			c-2.46-5.38-8.134-16.463-10.136-19.74c0.008-0.035,0.016-0.235,0.022-0.269c-0.01,0.001-0.021-0.168-0.03-0.168
			c-0.015,0-0.029,0-0.044,0c-0.009,0-0.017,0.17-0.024,0.171c0.026,0.033,0.076,0.182,0.076,0.182s-1.477,5.754-8.867,34.867
			c-4.617,18.187-8.046,37.03-15.079,55.669c-4.613,12.596-16.829,28.065-24.44,28.065c-6.552,0-9.694-11.459-1.635-46.072
			c5.995-22.678,27.49-104.205,27.49-104.205s4.261-18.146,8.523-26.937c2.888-5.954,7.892-8.566,13.297-8.565
			c8.449,0,17.879,6.385,21.731,16.37c10.073,26.102,19.967,52.272,31.516,82.557c10.095-29.231,18.954-54.561,27.555-79.979
			c2.865-8.466,4.765-17.259,7.639-25.723C950.852,277.746,958.987,272.188,968.065,272.188 M968.065,268.938
			c-10.726,0-19.977,6.836-23.569,17.417c-1.474,4.339-2.704,8.792-3.895,13.098c-1.154,4.179-2.349,8.501-3.745,12.627
			c-6.128,18.108-12.445,36.343-19.134,55.647c-1.794,5.178-3.623,10.455-5.492,15.857c-2.381-6.251-4.695-12.335-6.961-18.29
			c-7.388-19.42-14.366-37.764-21.373-55.919c-4.125-10.69-14.54-18.449-24.764-18.45c-7.104,0-13.017,3.79-16.221,10.398
			c-4.307,8.879-8.463,26.337-8.753,27.569c-0.589,2.231-21.606,81.948-27.479,104.163l-0.012,0.047l-0.011,0.047
			c-5.928,25.458-6.446,40.81-1.586,46.932c1.628,2.051,3.836,3.134,6.386,3.134c10.032,0,22.983-17.879,27.492-30.187
			c5.21-13.808,8.479-27.767,11.64-41.266c1.134-4.844,2.307-9.852,3.538-14.701c3.345-13.177,5.482-21.575,6.817-26.813
			c2.19,4.217,4.651,9.155,6.079,12.28c4.72,10.322,8.63,18.219,12.41,25.856c3.753,7.579,7.633,15.417,12.242,25.521
			c3.338,7.316,12.633,24.332,26.838,24.332c0.441,0,0.891-0.017,1.334-0.05c13.751-1.03,18.167-9.699,20.891-18.915
			c4-13.53,8.214-27.253,12.29-40.523c1.804-5.876,3.608-11.751,5.4-17.63c2.302-7.547,4.613-15.092,6.926-22.636
			c6.49-21.18,13.202-43.082,19.562-64.703c0.213-0.724,0.457-1.472,0.716-2.264c1.838-5.629,4.914-15.049-6.337-20.102
			C975.639,269.771,971.86,268.938,968.065,268.938L968.065,268.938z"/>
	</g>
	<g>
		<path style="fill-rule:evenodd;clip-rule:evenodd;" d="M400.165,320.221c-0.784-0.018-1.557-0.021-2.327-0.023
			c-4.577-0.016-9.309-0.033-12.347-3.151c-2.003-2.056-2.93-5.125-2.834-9.385c0.501-22.313,6.423-29.51,24.371-29.616l1.333-0.005
			c5.159,0,10.042,0.269,13.1,3.514c2.221,2.357,3.153,5.984,2.85,11.089c-1.283,21.653-6.304,27.582-23.355,27.582L400.165,320.221
			z"/>
		<path style="fill:#FFFFFF;" d="M408.359,279.665c8.428,0,15.047,0.775,14.328,12.882c-1.206,20.346-5.308,26.053-21.733,26.053
			c-0.255,0-0.512-0.001-0.772-0.004c-7.658-0.179-16.172,1.146-15.901-10.898c0.486-21.609,5.658-27.926,22.756-28.028
			C407.481,279.667,407.923,279.665,408.359,279.665 M408.36,276.415L408.36,276.415c-0.444,0-0.892,0.002-1.344,0.005
			c-9.936,0.059-16.138,2.264-20.109,7.148c-3.846,4.729-5.604,11.924-5.876,24.056c-0.106,4.719,0.972,8.172,3.295,10.556
			c3.515,3.607,8.822,3.625,13.505,3.642c0.76,0.002,1.521,0.005,2.274,0.022c0.314,0.003,0.583,0.005,0.848,0.005
			c6.789,0,14.367-0.784,19.095-6.596c3.484-4.283,5.188-10.807,5.882-22.515c0.332-5.576-0.745-9.6-3.29-12.3
			C419.14,276.723,413.888,276.415,408.36,276.415L408.36,276.415z"/>
	</g>
	<g>
		<path style="fill-rule:evenodd;clip-rule:evenodd;" d="M442.313,405.292c3.483-12.575,5.972-23.896,10.002-34.64
			c1.139-3.034,6.724-6.033,10.38-6.175c10.039-0.389,20.137,0.75,32.294,1.394c-3.255,13.074-5.528,24.194-9.243,35.772
			c-0.888,2.768-5.687,6.072-8.669,6.055C466.043,407.637,455.017,406.288,442.313,405.292z"/>
	</g>
	<g>
		<path style="fill-rule:evenodd;clip-rule:evenodd;" d="M488.376,481.354c-3.09,8.94-5.664,16.388-8.257,23.894
			c-12.493,0-24.191,0-36.069,0C449.816,473.415,450.076,477.64,488.376,481.354z"/>
	</g>
	<g>
		<path d="M332.465,445.383c-0.302,0-0.607-0.003-0.917-0.01c-31.335-0.711-57.66-1.508-84.282-3.089
			c-4.068-0.241-11.275-1.954-13.832-10.724l-0.058-0.197l-0.006-0.205c-0.227-7.052,52.689-170.499,56.768-181.422
			c2.801-7.499,10.112-12.158,19.081-12.158c2.85,0,5.75,0.463,8.622,1.375c4.533,1.44,7.661,3.783,9.298,6.963
			c1.866,3.624,1.828,8.316-0.116,14.344c-1.744,5.403-3.701,11.582-5.695,17.875c-4.729,14.926-9.619,30.361-12.41,37.851
			l-0.032-0.012c-0.217,1.083-0.799,2.978-1.895,6.544c-1.152,3.752-2.605,8.42-3.759,12.125l-1.135,3.648l-5.962,19.45
			c-3.448,11.246-6.888,22.461-10.244,33.439c-1.225,4.002-2.479,7.995-4.039,12.958c-0.661,2.104-1.376,4.381-2.168,6.908
			c5.156,0.008,10.156,0.042,15.04,0.075c5.29,0.037,10.445,0.072,15.521,0.072c8.096,0,14.702-0.094,20.789-0.296
			c0.52-0.018,1.026-0.026,1.52-0.026c11.374,0,16.193,4.889,16.633,16.872c0.223,6.07-1.043,10.448-3.872,13.383
			C342.557,443.991,338.353,445.383,332.465,445.383C332.465,445.383,332.465,445.383,332.465,445.383z"/>
		<path style="fill:#FFFFFF;" d="M309.219,239.203c2.636,0,5.386,0.427,8.129,1.299c10.196,3.24,10.94,10.541,8.128,19.259
			c-5.857,18.15-14.126,45.045-18.082,55.658c0.113,0.093-4.839,15.919-6.847,22.385c2.291-7.476,4.566-14.913,6.805-22.246
			l-6.896,22.542c-0.455,1.467-0.737,2.382-0.737,2.408l0.737-2.408c0.03-0.097,0.061-0.195,0.092-0.296
			c-5.417,17.682-10.917,35.589-16.21,52.902c-1.882,6.154-3.837,12.286-6.863,21.965c11.577,0,22.342,0.149,32.773,0.149
			c7.051,0,13.949-0.068,20.841-0.297c0.502-0.017,0.99-0.025,1.466-0.025c10.185,0,14.59,3.897,15.009,15.307
			c0.444,12.078-5.36,15.953-15.1,15.953c-0.29,0-0.583-0.003-0.879-0.01c-28.088-0.637-56.186-1.421-84.223-3.086
			c-3.958-0.234-10.136-1.9-12.368-9.557c-0.212-6.594,52.537-169.742,56.667-180.801
			C294.362,243.071,301.281,239.203,309.219,239.203 M309.219,235.953c-9.665,0-17.56,5.063-20.603,13.214
			c-2.052,5.496-16.305,49.133-30.014,92.228c-27.014,84.918-26.895,88.604-26.856,89.815l0.013,0.411l0.115,0.395
			c2.071,7.104,7.646,11.438,15.296,11.891c26.646,1.583,52.987,2.38,84.342,3.091c0.321,0.008,0.639,0.011,0.953,0.011
			c6.353,0,10.939-1.555,14.022-4.752c3.151-3.27,4.566-8.035,4.326-14.57c-0.475-12.923-5.936-18.438-18.257-18.438
			c-0.511,0-1.036,0.01-1.574,0.027c-6.069,0.201-12.657,0.295-20.733,0.295c-5.068,0-10.14-0.035-15.51-0.072
			c-4.172-0.028-8.452-0.058-12.842-0.07c0.536-1.707,1.035-3.297,1.507-4.799c1.573-5.007,2.816-8.961,4.043-12.973
			c3.359-10.986,6.801-22.211,10.252-33.466c1.987-6.481,3.978-12.972,5.957-19.432l1.129-3.631
			c1.154-3.707,2.607-8.377,3.761-12.13c0.58-1.887,1.084-3.542,1.437-4.732c0.194-0.653,0.37-1.246,0.488-1.791
			c2.81-7.557,7.688-22.955,12.407-37.847c2.032-6.413,3.951-12.47,5.692-17.867c2.084-6.46,2.089-11.559,0.015-15.586
			c-1.842-3.578-5.292-6.192-10.251-7.768C315.303,236.442,312.236,235.953,309.219,235.953L309.219,235.953z"/>
	</g>
	<g>
		<path style="fill-rule:evenodd;clip-rule:evenodd;" d="M241.385,419.49c-9.763,0-14.931-6.915-19.009-13.397
			c-5.698-9.057-11.414-17.913-18.032-28.167c-2.359-3.656-4.813-7.458-7.39-11.462c-1.31,3.871-2.536,7.51-3.705,10.979
			c-3.096,9.187-5.769,17.121-8.55,25.063c-3.914,11.175-7.245,16.493-15.593,16.493c-4.33,0-9.844-1.431-16.791-3.579l-1.514-0.469
			l0.43-1.525c1.271-4.508,2.54-9.028,3.81-13.555c2.956-10.531,6.012-21.421,9.096-32.132c2.597-9.015,5.744-17.439,9.077-26.359
			l0.907-2.428c1.764-4.731,5.212-11.18,9.121-13.785c1.542-1.027,3.285-1.548,5.182-1.548c5.493,0,11.913,4.526,17.173,12.107
			c7.734,11.146,14.398,21.734,22.116,33.993c1.961,3.116,3.987,6.335,6.112,9.691c0.642-1.398,1.261-2.729,1.857-4.01
			c1.951-4.194,3.636-7.815,5.069-11.529c3.401-8.808,6.774-17.8,10.036-26.496c2.926-7.801,5.952-15.868,8.99-23.781
			c4.875-12.695,7.622-18.798,16.709-18.798c4.281,0,10.133,1.359,17.337,3.136l1.551,0.382l-0.356,1.558
			c-0.351,1.533-0.664,3.127-0.967,4.669c-0.676,3.435-1.375,6.986-2.564,10.372c-7.467,21.239-15.183,42.787-22.646,63.625
			c-2.885,8.056-5.77,16.113-8.648,24.171c-2.474,6.922-5.553,15.536-16.457,16.658C242.937,419.449,242.146,419.49,241.385,419.49z
			"/>
		<path style="fill:#FFFFFF;" d="M276.486,296.419c3.929,0,9.234,1.187,16.948,3.089c-1.128,4.932-1.798,10.077-3.481,14.865
			c-10.303,29.307-20.842,58.532-31.291,87.788c-2.674,7.48-5.451,14.597-15.093,15.589c-0.755,0.078-1.483,0.115-2.184,0.115
			c-8.68,0-13.322-5.784-17.633-12.638c-8.244-13.102-16.704-26.065-27.254-42.479c-5.303,15.632-9.214,27.461-13.332,39.219
			c-3.827,10.929-6.721,15.405-14.06,15.405c-3.907,0-9.073-1.268-16.311-3.507c4.273-15.156,8.516-30.438,12.903-45.679
			c2.813-9.763,6.277-18.835,9.944-28.669c1.855-4.975,5.2-10.802,8.5-13.001c1.297-0.865,2.744-1.275,4.28-1.275
			c4.978,0,10.908,4.303,15.838,11.408c10.176,14.666,18.562,28.466,29.798,46.165c3.288-7.305,6.032-12.725,8.207-18.361
			c6.455-16.716,12.604-33.551,19.026-50.279C266.312,301.107,268.678,296.419,276.486,296.419 M276.486,293.169
			c-10.608,0-13.639,7.893-18.227,19.84c-3.041,7.919-6.067,15.989-8.995,23.793c-3.26,8.692-6.631,17.681-10.029,26.48
			c-1.414,3.664-3.088,7.263-5.027,11.43c-0.201,0.431-0.402,0.865-0.606,1.304c-1.55-2.456-3.05-4.838-4.515-7.165
			c-7.727-12.276-14.401-22.878-22.155-34.054c-5.647-8.138-12.393-12.806-18.509-12.806c-2.223,0-4.27,0.612-6.083,1.82
			c-4.232,2.821-7.894,9.612-9.743,14.57l-0.907,2.428c-3.343,8.95-6.501,17.403-9.116,26.478
			c-3.086,10.718-6.143,21.611-9.1,32.146c-1.27,4.524-2.538,9.043-3.809,13.55l-0.86,3.05l3.028,0.937
			c7.087,2.192,12.736,3.652,17.271,3.652c10.162,0,13.638-7.619,17.127-17.581c2.785-7.952,5.459-15.89,8.557-25.082
			c0.842-2.499,1.713-5.085,2.624-7.783c1.919,2.978,3.77,5.847,5.566,8.63c6.615,10.25,12.328,19.102,18.021,28.15
			c4.309,6.85,9.793,14.157,20.384,14.157c0.816,0,1.663-0.044,2.518-0.133c11.922-1.227,15.192-10.376,17.82-17.728
			c2.879-8.061,5.764-16.118,8.65-24.176c7.462-20.839,15.179-42.387,22.646-63.628c1.229-3.497,1.939-7.107,2.626-10.598
			c0.315-1.6,0.612-3.111,0.957-4.62l0.713-3.115l-3.103-0.765C286.899,294.549,280.951,293.169,276.486,293.169L276.486,293.169z"
			/>
	</g>
	<g>
		<path style="fill-rule:evenodd;clip-rule:evenodd;" d="M763.49,467.122c-5.907,0-10.818-0.063-15.456-0.2
			c-6.593-0.192-10.585-1.669-12.563-4.646c-2.02-3.039-1.803-7.455,0.685-13.896c12.267-31.776,25.633-65.859,40.252-99.799
			c2.45-5.688,10.607-11.516,17.113-12.227c6.541-0.715,13.49-1.063,21.243-1.063c6.396,0,13.404,0.237,22.056,0.746
			c5.102,0.3,11.648,1.459,13.865,5.281c0.734,1.266,1.303,3.396-0.163,6.347c-3.378,6.804-6.368,7.893-14.236,7.893
			c-1.452,0-3.101-0.034-4.987-0.073c-2.546-0.052-5.431-0.112-8.878-0.112c-1.089,0-2.228,0.006-3.424,0.021
			c-1.585,0.019-3.011,0.021-4.3,0.022c-5.628,0.006-8.453,0.01-10.159,1.398c-1.809,1.473-3.136,5.057-5.546,11.564
			c-1.49,4.024-3.478,9.392-6.323,16.264l2.306-0.002c9.94,0,20.786,0.154,25.859,1.293c2.933,0.658,4.313,2.253,4.953,3.474
			c0.964,1.839,0.963,4.169-0.003,6.561c-2.722,6.737-4.346,9.977-11.469,10.01l-0.975,0.003c-1.461,0.004-2.92,0.008-4.379,0.044
			c-1.304,0.032-2.542,0.046-3.711,0.046c-3.357,0-6.131-0.107-8.578-0.203c-1.766-0.069-3.29-0.128-4.623-0.128
			c-7.776,0-8.352,0.87-15.386,23.282c-1.03,3.283-2.197,7-3.55,11.207c3.049-0.016,6.096-0.06,9.06-0.103
			c3.636-0.052,7.395-0.106,11.075-0.106c3.698,0,6.956,0.056,9.96,0.169c7.78,0.294,12.813,2.228,14.96,5.746
			c1.524,2.5,1.489,5.619-0.103,9.021c-4.763,10.178-8.51,12.168-13.375,12.169c-0.33,0-0.662-0.008-0.996-0.015
			c-3.894-0.092-8.141-0.136-12.981-0.136c-4.533,0-9.066,0.037-13.601,0.075C772.571,467.084,768.03,467.122,763.49,467.122z"/>
		<path style="fill:#FFFFFF;" d="M814.764,336.917c7.32,0,14.662,0.313,21.96,0.743c6.704,0.394,15.769,2.383,12.343,9.283
			c-3.008,6.057-5.211,6.99-12.781,6.99c-3.373,0-7.813-0.186-13.865-0.186c-1.095,0-2.24,0.006-3.443,0.021
			c-21.166,0.252-13.96-2.582-28.75,32.5c1.382,0,2.994-0.004,4.747-0.004c8.511,0,20.361,0.099,25.503,1.254
			c4.165,0.935,5.25,4.25,3.8,7.84c-2.633,6.518-3.851,8.965-9.97,8.993c-1.797,0.007-3.592,0.003-5.387,0.048
			c-1.288,0.031-2.514,0.045-3.67,0.045c-5.797,0-9.999-0.331-13.201-0.331c-10.909-0.001-10.188,3.844-21.169,37.745
			c7.559,0,14.987-0.215,22.368-0.215c3.307,0,6.604,0.043,9.898,0.168c14.33,0.541,16.172,6.632,13.447,12.454
			c-4.854,10.372-8.309,11.232-11.903,11.232c-0.317,0-0.637-0.007-0.958-0.015c-4.338-0.102-8.68-0.136-13.02-0.136
			c-9.074,0-18.149,0.15-27.222,0.15c-5.14,0-10.274-0.049-15.409-0.199c-11.823-0.346-14.846-4.846-10.411-16.333
			c12.911-33.445,26.05-66.823,40.229-99.741c2.249-5.221,10.051-10.626,15.798-11.254
			C800.661,337.208,807.703,336.917,814.764,336.917 M814.764,333.667c-7.813,0-14.819,0.351-21.42,1.072
			c-6.999,0.765-15.783,7.056-18.43,13.2c-14.63,33.966-28.003,68.065-40.275,99.856c-1.694,4.39-3.593,10.761-0.521,15.381
			c3.017,4.539,9.36,5.239,13.87,5.371c4.652,0.136,9.579,0.2,15.504,0.2c4.548,0,9.167-0.039,13.634-0.075
			c4.456-0.037,9.063-0.075,13.588-0.075c4.828,0,9.063,0.044,12.943,0.135c0.348,0.008,0.691,0.016,1.034,0.016
			c5.38,0,9.74-2.192,14.847-13.104c2.316-4.95,1.288-8.473,0.018-10.556c-2.447-4.014-7.927-6.208-16.285-6.524
			c-3.024-0.114-6.303-0.17-10.021-0.17c-3.692,0-7.457,0.055-11.099,0.106c-2.233,0.032-4.513,0.065-6.804,0.086
			c1.065-3.335,2.008-6.337,2.868-9.08c6.922-22.054,7.336-22.143,13.757-22.143c0.025,0,0.052,0,0.077,0
			c1.302,0,2.812,0.059,4.56,0.127c2.462,0.096,5.253,0.204,8.643,0.204c1.249,0,2.511-0.016,3.75-0.046
			c1.437-0.036,2.915-0.04,4.345-0.044l0.975-0.003c8.532-0.039,10.394-4.647,12.971-11.025c1.147-2.842,1.125-5.656-0.065-7.925
			c-0.8-1.524-2.496-3.51-6.036-4.304c-5.207-1.17-16.099-1.332-26.097-1.333c2.372-5.833,4.095-10.485,5.424-14.073
			c2.234-6.033,3.582-9.675,5.048-10.868c1.208-0.983,3.673-1.027,9.135-1.034c1.294-0.001,2.726-0.003,4.317-0.022
			c1.189-0.014,2.322-0.02,3.404-0.02c3.431,0,6.307,0.06,8.845,0.112c1.902,0.039,3.545,0.073,5.021,0.073
			c8.357,0,11.985-1.329,15.692-8.795c1.786-3.598,1.047-6.274,0.112-7.885c-2.07-3.569-7.176-5.618-15.176-6.088
			C828.23,333.904,821.192,333.667,814.764,333.667L814.764,333.667z"/>
	</g>
</g>
</svg>
